<svg width="644" height="648" viewBox="0 0 644 648" fill="none" xmlns="http://www.w3.org/2000/svg">
<path d="M367.068 451.216C367.068 550.565 284.899 631.099 183.534 631.099C82.1689 631.099 0 550.565 0 451.216C0 351.867 82.1689 271.333 183.534 271.333C284.899 271.333 367.068 351.867 367.068 451.216Z" fill="url(#paint0_radial_66_276)"/>
<path d="M367.068 451.216C367.068 550.565 284.899 631.099 183.534 631.099C82.1689 631.099 0 550.565 0 451.216C0 351.867 82.1689 271.333 183.534 271.333C284.899 271.333 367.068 351.867 367.068 451.216Z" fill="url(#paint1_radial_66_276)"/>
<path d="M359.251 500.593C356.818 500.678 353.691 501.785 353.605 502.551C353.605 503.402 350.217 504.849 349.088 505.275C347.959 505.701 345.874 509.021 345.353 510.127C344.919 511.234 342.139 510.894 341.184 511.319C340.228 511.745 338.144 513.362 338.057 514.384C338.057 515.321 337.449 515.235 336.841 514.129C336.841 514.129 336.841 514.129 335.538 515.491C333.974 517.193 333.974 517.193 333.974 517.193C333.106 520.003 330.066 523.493 329.023 523.749C327.981 524.004 327.807 528.856 327.807 530.815C327.807 532.773 328.589 535.156 329.545 536.178C329.545 536.178 329.545 536.178 329.718 537.71C330.066 540.775 330.066 540.775 330.066 540.775C329.545 543.159 331.369 545.287 331.89 545.713C332.411 546.138 336.928 544.946 338.665 544.521C339.36 544.35 340.315 543.925 341.184 543.499C349.349 530.133 355.689 515.746 360.119 500.422C359.945 500.593 359.598 500.593 359.251 500.593ZM55.6772 505.19C55.4166 505.701 58.7173 509.021 60.0202 510.127C61.323 511.234 64.0157 516.683 64.5368 518.47C65.058 520.258 64.7974 523.153 64.6237 523.834C64.45 524.515 65.2317 526.047 65.4054 526.643C65.4923 527.239 64.2763 532.602 64.7106 534.731C65.1449 536.859 62.1916 543.499 62.1916 546.819C62.2785 550.139 63.7551 554.396 64.45 554.141C65.058 553.8 65.3186 557.12 64.2763 557.546C63.234 557.972 62.0179 560.611 62.6259 560.696C63.234 560.866 62.6259 563.42 62.7128 564.442C62.8865 565.463 63.7551 572.359 63.9288 574.061C64.1025 575.764 66.6215 579.936 67.1426 581.383C67.6638 582.83 68.1849 585.469 68.3587 585.895C68.5324 586.32 68.7929 586.746 68.8798 586.746C68.9667 586.746 70.9644 587.512 71.4856 587.938C72.0936 588.364 76.0023 588.108 77.3052 587.853C78.608 587.597 77.392 586.406 76.8709 585.81C76.2628 585.214 75.7417 582.149 75.1337 581.808C74.4388 581.553 74.1782 577.637 74.7862 576.786C75.3943 575.934 77.7395 574.572 78 573.806C78.2606 573.125 78.3475 569.72 77.6526 569.209C77.0446 568.783 77.8263 564.612 77.392 562.569C76.9577 560.526 81.0401 558.653 81.2138 557.035C81.4744 555.418 85.9042 553.715 86.8597 552.864C87.8151 552.012 88.6837 547.415 88.2494 546.394C87.7283 545.372 89.8998 544.606 90.8552 544.606C91.8107 544.606 92.853 543.925 93.2004 543.925C93.5479 543.925 94.677 541.882 95.285 541.371C95.8931 540.86 97.1091 536.008 98.2383 535.241C99.3674 534.475 100.236 531.496 100.236 530.644C100.236 529.793 101.886 527.239 102.494 526.473C103.016 525.707 107.185 523.834 107.88 523.578C108.575 523.238 109.704 516.768 110.051 514.469C110.312 512.171 111.615 509.021 111.701 508.255C111.788 507.488 113.091 506.807 113.352 506.552C113.612 506.297 114.568 503.317 115.263 502.636C115.871 501.955 118.216 499.145 118.216 498.464C118.303 497.869 118.65 496.251 118.998 494.889C118.998 494.889 118.998 494.889 118.998 493.271C118.998 490.717 118.998 490.717 118.998 490.717C118.303 488.759 116.044 486.291 115.523 486.887C114.915 487.397 112.396 485.184 111.093 484.673C109.791 484.247 106.577 483.822 105.708 483.822C104.926 483.822 102.06 481.523 100.757 481.098C99.4543 480.757 96.2405 480.076 95.6325 479.735C95.0245 479.395 94.2427 474.628 91.6369 473.095C89.0312 471.563 84.4276 467.902 83.9065 466.625C83.3853 465.348 78.3475 462.539 76.784 461.687C75.2205 460.836 72.8753 460.666 72.6148 460.921C72.2673 461.177 70.3564 458.367 69.401 457.516C68.3587 456.75 65.4054 456.069 65.2317 456.75C65.058 457.516 63.0602 457.09 62.6259 456.494C62.1916 455.899 60.6282 456.75 59.8464 457.005C59.1516 457.261 56.6326 461.006 55.5035 461.858C54.3743 462.709 52.9846 461.006 52.2028 460.666C51.4211 460.325 48.5547 461.262 47.773 461.773C46.9913 462.283 45.1672 457.771 45.6015 455.728C46.0358 453.685 43.6906 449.514 41.8666 449.429C40.1294 449.343 39.5214 445.002 39.8688 443.384C40.2162 441.767 36.655 440.83 35.6995 440.66C34.7441 440.575 32.5726 442.788 32.1383 443.895C31.7909 445.002 23.6261 442.448 24.5816 437.68C25.537 432.913 29.3588 427.975 30.3143 427.379C31.2697 426.783 36.4813 426.528 37.6973 427.124C38.8265 427.805 39.8688 427.124 40.1294 426.783C40.3031 426.528 44.5592 426.869 45.8621 427.379C47.165 427.89 48.989 432.743 50.2919 433.339C51.5948 433.935 52.116 430.189 52.2897 429.337C52.5503 428.401 51.6817 426.102 51.3342 425.506C50.9868 424.825 53.4188 419.036 55.4166 418.015C57.4144 416.993 59.499 413.758 59.3253 413.162C59.1516 412.566 60.8887 412.141 61.4099 411.885C61.9311 411.63 61.323 406.948 62.1048 405.926C62.8865 404.905 66.6215 402.776 67.8375 402.265C69.0535 401.755 69.9221 398.775 69.4878 398.264C69.0535 397.754 72.5279 394.774 74.3519 394.263C76.176 393.752 77.7395 395.285 77.3052 395.54C77.6526 395.37 80.1715 394.093 81.2138 393.412C82.4299 392.646 81.2138 390.347 80.4321 389.751C79.6504 389.155 80.0847 386.516 81.0401 386.346C81.9956 386.09 82.8642 383.877 82.6036 383.451C82.343 382.941 86.5991 383.877 88.2494 382.685C89.8129 381.493 88.6837 385.495 87.5546 387.112C86.4254 388.73 88.4232 390.262 89.2049 389.921C89.9866 389.581 90.7683 390.773 90.9421 391.198C91.1158 391.624 92.7661 390.688 93.8084 391.198C94.8507 391.624 95.5456 389.751 95.6325 388.9C95.7193 388.048 93.0267 386.176 92.6793 385.154C92.245 384.132 92.0712 378.003 92.0712 376.726C91.9844 375.449 90.3341 373.406 89.726 373.831C89.2049 374.172 88.0757 370.596 87.2071 369.83C86.3385 369.064 86.0779 367.361 86.1648 366.766C86.1648 366.17 83.1247 363.02 82.4299 361.572C81.735 360.125 80.6927 360.381 80.6058 361.062C80.519 361.743 78.4343 361.828 77.5657 361.743C76.6972 361.658 76.0023 358.337 76.0023 357.146C76.0023 355.869 72.0936 355.698 71.3987 354.677C70.7907 353.655 68.1849 354.166 67.7506 353.485C67.3163 352.804 65.058 352.123 64.6237 352.378C64.1894 352.634 64.3631 361.573 63.9288 364.041C63.4945 366.425 61.4099 368.553 60.6282 368.553C59.8464 368.468 60.3676 370.256 60.8887 370.086C61.4099 369.915 59.4121 372.725 59.1516 374.598C58.891 376.471 56.9801 374.513 56.7195 372.895C56.3721 371.192 54.548 368.979 54.2006 369.575C53.8531 370.171 52.5503 368.894 52.0291 369.234C51.5079 369.575 47.9467 367.276 46.557 366.51C45.1672 365.744 44.3855 361.487 43.5169 361.147C42.6483 360.721 43.3432 360.296 43.3432 359.614C43.3432 358.933 46.1227 356.465 46.9044 355.528C47.773 354.507 50.8131 350.676 51.9422 349.824C53.1583 348.973 54.1137 346.76 53.8531 346.334C53.6794 345.908 58.9778 344.291 60.4545 343.78C61.9311 343.269 63.1471 339.353 63.3208 338.161C63.4945 337.055 62.3654 334.841 61.7573 334.586C61.0625 334.33 63.7551 334.245 64.7106 334.671C65.5792 335.097 68.3587 333.905 69.4878 334.415C70.5301 335.011 72.7885 336.288 74.3519 337.225C74.3519 337.225 74.3519 337.225 74.0045 340.119C73.3096 345.057 73.3096 345.057 73.3096 345.057C69.0535 346.76 67.8375 349.739 69.3141 349.654C70.7907 349.569 77.5657 352.549 79.4766 353.826C81.3876 355.188 81.9956 351.867 82.5167 350.761C83.1247 349.654 82.8642 346.504 82.4299 345.908C81.9956 345.312 84.6013 345.483 85.3831 346.164C86.1648 346.845 87.0334 345.397 87.5546 345.227C88.1626 344.972 88.4231 342.248 88.7706 341.737C89.0312 341.141 87.4677 340.63 87.4677 339.949C87.3808 339.268 84.3408 337.991 83.3853 337.48C82.4299 337.055 82.1693 334.926 82.6904 334.586C83.2116 334.245 82.343 331.606 81.8218 330.755C81.3875 329.903 78.1738 329.222 77.1314 329.222C76.0891 329.222 74.96 326.839 74.3519 326.498C73.7439 326.158 69.6615 325.732 68.7061 325.987C67.6638 326.243 65.8397 323.178 64.1894 324.115C62.4522 325.051 60.715 323.008 59.9333 322.582C59.1516 322.156 55.156 326.328 55.2429 329.308C55.3298 332.287 56.8064 335.097 57.4144 335.182C58.0224 335.267 57.2407 337.906 56.5458 338.672C55.8509 339.438 54.2006 337.906 54.8086 337.225C55.4166 336.544 53.0714 333.479 52.2897 332.202C51.6817 331.266 49.6839 330.499 48.2073 329.903C47.3387 330.755 46.557 331.691 45.7752 332.543C46.1227 333.649 46.4701 335.011 46.1227 336.033C45.5146 337.821 44.038 338.076 43.9512 337.31C43.9512 336.969 43.1694 336.714 42.214 336.629C19.8043 362.509 4.95135 394.944 0.782104 430.529C1.6507 431.551 2.69301 432.743 2.95359 433.509C3.47474 435.126 6.25424 436.148 6.7754 436.488C7.29655 436.829 7.47027 433.424 7.12284 432.572C6.7754 431.721 7.81771 431.21 7.81771 431.806C7.81771 432.487 10.4235 435.382 11.3789 436.488C12.2475 437.51 13.203 444.406 13.9847 445.938C14.8533 447.385 22.9312 450.45 25.537 451.046C28.1428 451.557 31.4434 454.451 31.9646 455.303C32.4858 456.154 35.9601 456.58 36.655 456.835C37.4367 457.176 39.1739 459.474 39.9557 459.985C40.6505 460.496 41.2585 461.858 41.2585 462.198C41.2585 462.539 45.8621 464.241 46.9044 465.433C48.0336 466.625 49.8576 466.285 50.2051 465.774C50.5525 465.263 51.4211 468.158 51.9422 469.179C52.3765 470.201 52.5503 472.669 52.2028 473.01C51.8554 473.351 51.1605 477.863 50.3788 478.799C49.597 479.735 47.9467 486.291 48.2941 487.568C48.6416 488.845 50.8131 491.569 51.6817 491.909C52.6371 492.335 52.2028 493.697 51.5079 493.782C50.8131 493.867 51.0737 500.167 52.8108 501.018C54.4612 501.955 55.9378 504.679 55.6772 505.19ZM77.3052 395.455C77.2183 395.455 77.2183 395.455 77.3052 395.455V395.455ZM64.7106 319.432C66.882 319.092 70.5301 318.496 70.7907 317.9C70.9644 317.389 70.9644 315.942 70.617 315.431C70.9644 315.431 71.3987 315.431 71.6593 315.431C72.5279 315.431 73.9176 310.919 74.7862 309.897C75.6548 308.876 80.6927 307.344 81.9087 306.577C83.1247 305.896 85.7305 303.427 86.7728 303.087C87.8151 302.746 89.2917 300.448 89.0312 300.022C88.7706 299.597 92.4187 297.383 93.8084 296.872C95.1982 296.276 95.8931 294.744 95.3719 294.659C95.0245 294.574 87.3808 298.575 80.3452 302.491C72.3542 307.854 64.7974 313.814 57.675 320.284C59.8464 320.028 63.3208 319.603 64.7106 319.432ZM197.692 543.755C200.037 542.392 204.033 536.603 205.336 535.412C206.639 534.22 207.594 529.793 207.855 528.856C208.115 527.92 210.113 526.303 210.895 526.132C211.59 525.962 214.022 516.172 216.106 514.044C218.191 511.915 220.623 501.614 220.362 497.954C220.102 494.293 221.752 487.227 222.186 485.524C222.708 483.822 225.313 480.842 226.095 480.246C226.877 479.65 231.915 472.329 233.565 469.69C235.215 467.051 236.692 461.262 236.431 459.9C236.084 458.538 232.61 457.601 231.915 458.282C231.22 458.963 227.919 459.474 226.877 459.474C225.835 459.474 223.403 453.941 221.839 452.749C220.362 451.642 218.973 445.257 218.104 444.065C217.236 442.873 214.803 439.809 214.022 439.128C213.24 438.447 213.153 435.041 212.979 434.105C212.806 433.168 214.456 434.701 214.717 436.063C214.977 437.425 218.886 442.873 220.102 444.661C221.318 446.534 224.532 452.323 225.313 454.111C226.095 455.899 233.218 455.047 235.476 453.94C237.734 452.834 240.601 451.046 240.774 450.45C240.861 449.854 244.509 448.152 245.552 447.385C246.594 446.619 247.463 442.448 248.157 441.767C248.852 441.086 247.636 437.084 246.855 435.893C246.073 434.701 242.425 433.764 241.73 434.19C240.948 434.616 239.385 431.551 238.863 430.359C238.342 429.167 235.476 427.805 235.215 427.039C234.955 426.273 235.997 424.996 236.431 424.74C236.866 424.485 242.077 428.06 243.554 429.763C245.031 431.551 246.768 434.786 247.028 435.382C247.289 435.978 251.371 436.233 252.327 435.552C253.195 434.871 254.324 435.041 254.672 435.893C254.672 435.893 254.672 435.893 255.975 435.637C260.491 434.956 260.491 434.956 260.491 434.956C262.576 437.17 263.184 439.128 263.184 439.638C263.184 440.064 264.487 441.937 265.356 442.107C266.224 442.277 266.832 445.172 267.093 445.853C267.353 446.534 269.872 450.876 270.393 452.664C270.915 454.451 273.086 458.027 273.607 458.963C274.128 459.9 274.563 462.624 274.563 463.39C274.563 464.156 276.213 465.604 277.255 465.518C278.298 465.433 280.295 459.134 280.817 456.835C281.251 454.536 282.901 452.578 283.422 452.578C283.857 452.578 284.291 451.301 284.291 450.791C284.291 450.28 286.897 450.365 287.157 449.684C287.418 449.003 288.113 444.917 289.068 444.235C290.024 443.64 293.237 441.511 294.453 441.086C295.583 440.66 298.536 443.214 299.231 444.321C299.926 445.512 300.447 448.407 300.186 448.918C299.926 449.429 301.75 451.982 303.313 451.897C304.877 451.812 305.398 453.855 305.398 454.536C305.485 455.217 307.569 457.346 307.917 458.197C308.351 459.134 308.177 461.602 307.917 462.198C307.656 462.794 307.83 466.029 308.09 466.966C308.351 467.902 313.215 472.669 315.039 474.117C316.863 475.564 317.732 471.137 316.776 469.775C315.821 468.413 312.694 465.178 311.999 464.241C311.217 463.305 311.13 459.474 311.391 458.367C311.652 457.261 314.171 458.963 315.213 459.729C316.255 460.496 317.558 462.198 317.645 462.794C317.645 463.39 324.159 459.815 324.333 455.984C324.594 452.153 326.678 447.811 326.939 446.789C327.113 445.768 326.331 444.406 325.723 444.321C325.202 444.235 326.678 441.341 328.502 441.426C330.326 441.511 334.669 436.744 335.712 434.786C336.754 432.913 338.839 431.381 339.099 431.125C339.36 430.87 340.836 426.443 341.097 424.57C341.358 422.697 340.055 419.803 339.881 418.866C339.707 417.93 338.144 415.716 337.709 415.035C337.275 414.354 336.928 411.715 337.188 411.289C337.449 410.779 339.099 410.268 339.186 409.842C339.36 409.417 341.271 407.459 341.097 406.607C340.923 405.756 342.226 407.714 343.095 408.395C343.963 409.076 344.919 413.673 345.961 414.184C347.003 414.695 351.259 409.331 350.738 405.841C350.217 402.351 351.954 397.924 352.997 397.498C353.778 397.243 355.776 394.433 357.166 392.39C347.698 365.659 332.064 341.822 311.912 322.412C311.652 322.412 311.478 322.412 311.217 322.412C309.654 322.071 309.654 322.071 309.654 322.071C307.048 321.561 305.485 318.751 305.919 318.155C306.093 317.985 306.006 317.474 305.919 316.963C304.442 315.686 302.966 314.409 301.402 313.133C300.186 313.133 298.883 313.133 298.102 313.133C296.538 313.047 293.064 311.941 292.456 311.345C291.848 310.749 289.763 311.856 289.676 312.962C289.503 314.069 285.941 314.58 285.594 315.431C285.246 316.282 283.335 316.368 282.988 315.857C282.641 315.346 279.253 317.049 277.603 317.219C275.952 317.474 272.826 318.751 272.131 319.092C271.349 319.432 269.612 321.135 269.351 321.816C269.091 322.497 266.919 323.689 266.224 323.944C265.529 324.2 265.703 327.264 266.572 327.69C267.44 328.116 264.921 327.35 263.792 326.754C262.663 326.243 261.447 328.031 261.099 328.712C260.752 329.308 259.71 328.286 259.797 327.435C259.797 326.498 257.017 325.817 256.67 326.498C256.322 327.264 254.324 326.243 253.543 325.817C252.761 325.391 249.287 328.967 247.984 330.244C246.681 331.521 240.601 332.457 239.385 332.032C238.255 331.521 237.126 334.671 238.082 334.926C239.037 335.097 235.563 334.756 233.652 334.926C231.741 335.097 226.182 337.31 224.879 338.246C223.576 339.183 222.447 337.991 222.447 337.31C222.447 336.544 220.362 335.863 219.668 335.692C219.06 335.522 217.844 339.779 216.714 340.545C215.585 341.396 214.282 337.225 211.677 336.544C209.071 335.863 205.075 333.394 203.859 333.138C202.73 332.798 200.385 330.499 199.777 329.818C199.082 329.137 195.781 328.541 194.739 328.541C193.697 328.541 190.222 330.499 189.354 331.18C188.398 331.947 187.008 331.776 186.574 332.032C186.14 332.287 182.231 336.033 180.755 337.225C179.278 338.417 176.585 343.439 175.804 344.631C174.935 345.823 173.719 346.079 173.198 346.079C172.677 346.079 172.242 347.441 172.242 347.951C172.242 348.462 167.813 350.676 167.291 352.719C166.857 354.677 167.726 359.189 167.726 360.806C167.726 362.424 169.376 365.574 170.592 365.659C171.808 365.744 171.2 368.383 170.853 369.149C170.505 369.915 171.634 370.682 171.634 371.363C171.634 372.044 168.507 372.895 167.552 373.236C166.597 373.576 165.033 375.704 164.859 376.471C164.686 377.152 161.732 377.662 160.777 378.599C161.038 377.918 161.385 376.981 161.646 376.471C162.254 375.449 161.385 373.576 160.951 373.236C160.516 372.81 160.256 367.617 159.474 366.51C158.692 365.403 156.868 363.445 156.347 363.105C155.913 362.764 156.695 361.317 156.955 360.806C157.216 360.21 154.436 359.87 153.741 360.296C152.96 360.721 152.612 365.914 152.265 367.361C151.917 368.809 153.654 370.937 154.089 371.022C154.523 371.107 154.436 373.661 153.481 373.746C152.525 373.831 151.657 377.577 152.091 378.429C152.612 379.28 151.396 380.983 150.788 381.323C150.18 381.664 154.523 381.493 156.434 381.408C158.432 381.323 159.908 382.26 159.735 382.345C159.561 382.515 156 383.026 155.305 383.877C154.697 384.728 152.265 386.261 151.83 386.942C151.396 387.538 152.612 388.985 153.654 388.9C154.697 388.815 155.826 392.39 156.608 392.986C157.389 393.667 157.129 395.455 156.781 395.966C156.434 396.477 151.657 395.625 149.833 396.051C148.009 396.477 145.663 400.307 145.577 401.67C145.403 403.117 145.837 407.203 146.098 408.31C146.358 409.417 150.093 410.183 150.875 410.694C151.657 411.204 155.305 410.694 156.087 411.034C156.781 411.375 159.3 407.373 159.822 405.586C160.256 403.713 164.164 400.393 165.033 399.116C165.815 397.839 170.071 398.009 171.026 397.328C172.069 396.647 171.461 400.478 171.982 402.521C172.503 404.564 176.499 404.309 175.89 402.351C175.282 400.393 176.325 399.541 176.412 400.307C176.585 400.989 180.407 402.521 181.189 403.628C181.884 404.734 181.71 407.033 180.841 407.033C179.973 407.033 179.973 409.587 180.841 409.842C181.71 410.098 182.926 406.948 183.968 406.522C184.924 406.011 185.706 404.053 185.271 403.883C184.837 403.713 186.14 401.925 186.661 402.521C187.182 403.117 184.576 398.69 182.926 397.072C181.276 395.455 182.405 396.136 185.532 398.69C185.532 398.69 185.532 398.69 187.617 401.584C188.051 402.095 188.572 403.713 188.919 404.309C189.441 405.16 189.441 405.16 189.441 405.16C189.875 406.182 190.222 408.991 190.222 409.757C190.222 410.523 191.873 411.971 192.915 411.885C193.957 411.8 194.652 412.396 194.478 412.396C194.305 412.396 195.173 414.354 196.129 414.439C197.084 414.439 197.518 411.971 196.563 411.885C195.521 411.8 195.694 408.14 195.608 406.607C195.521 404.99 196.302 403.713 196.65 403.713C196.997 403.713 196.563 406.948 196.65 407.714C196.65 408.48 197.084 409.927 197.518 411.034C197.518 411.034 197.518 411.034 198.561 411.8C200.906 413.588 200.906 413.588 200.906 413.588C204.207 412.652 208.723 413.333 208.55 414.014C208.376 414.695 210.982 414.865 211.155 413.758C211.329 412.652 211.416 413.758 211.416 414.524C211.416 415.291 209.244 418.185 208.897 419.547C208.55 420.909 200.819 419.973 197.518 419.718C194.218 419.462 189.354 420.569 188.919 421.505C188.572 422.442 183.36 419.292 181.015 418.27C178.67 417.249 176.759 413.758 176.325 413.333C175.804 412.907 176.759 411.715 176.499 411.034C176.238 410.353 170.853 410.183 169.289 410.779C167.726 411.375 159.648 412.226 157.65 412.992C155.739 413.843 152.873 412.907 151.917 412.822C151.049 412.652 148.877 415.291 147.835 415.716C146.706 416.142 145.316 419.888 144.795 423.889C144.795 423.889 144.795 423.889 143.318 426.698C142.363 428.486 142.363 428.486 142.363 428.486C139.67 430.444 136.717 437.17 135.848 438.447C134.98 439.809 134.285 449.343 134.285 452.578C134.285 455.813 137.151 462.624 137.933 464.497C138.715 466.37 143.666 470.541 145.403 471.563C147.053 472.499 152.438 472.669 154.263 472.669C156 472.669 157.997 471.052 158.692 469.009C158.692 469.009 158.692 469.009 161.298 469.264C162.514 469.349 162.514 469.349 162.514 469.349C162.601 470.797 166.423 471.903 167.378 472.414C168.334 472.925 170.853 472.499 171.548 472.329C172.329 472.159 173.111 478.714 172.59 480.672C172.069 482.545 173.893 489.27 174.501 491.313C175.022 493.357 177.367 498.89 177.628 500.848C177.888 502.806 176.238 509.446 175.977 511.745C175.717 514.044 178.931 520.514 179.799 522.727C180.668 524.94 181.276 529.708 181.276 530.815C181.276 531.921 184.75 538.647 185.532 541.371C186.574 544.436 195.347 545.117 197.692 543.755ZM349.349 461.858C349.609 462.369 351.781 460.666 353.083 460.411C354.386 460.24 355.255 456.75 354.213 456.494C353.17 456.239 351.867 453.515 351.086 453.174C350.304 452.834 348.914 454.366 348.914 455.388C349.001 456.409 346.482 456.835 346.048 457.771C345.614 458.623 345.614 459.304 346.135 459.219C346.656 459.134 349.088 461.432 349.349 461.858ZM346.569 480.842C347.264 480.587 346.482 477.181 345.092 476.841C343.703 476.586 339.881 481.353 340.663 484.162C341.358 486.886 342.226 486.716 342.574 486.205C343.008 485.61 345.266 486.546 345.874 486.801C346.569 486.972 346.569 486.376 345.874 485.354C345.266 484.247 345.961 481.098 346.569 480.842ZM339.099 477.437C339.273 476.245 339.533 472.329 339.707 471.563C339.881 470.797 337.536 468.583 336.406 468.158C335.277 467.732 331.542 475.649 328.937 477.011C326.244 478.373 325.288 483.226 325.983 484.333C326.678 485.439 332.237 486.035 333.193 486.887C334.148 487.738 335.277 486.716 335.798 486.631C336.406 486.461 336.233 486.12 335.972 485.95C335.712 485.78 337.883 483.566 338.231 482.119C338.578 480.842 338.925 478.714 339.099 477.437ZM323.986 490.632C321.901 489.866 319.469 491.058 319.295 491.824C319.122 492.59 327.286 493.867 330.066 494.633C332.758 495.4 334.496 495.57 333.888 495.144C333.193 494.633 326.07 491.398 323.986 490.632ZM340.663 438.191C341.358 437.34 339.707 433.083 338.925 434.02C338.144 434.956 338.752 437.425 338.925 438.276C339.273 439.128 339.968 439.042 340.663 438.191ZM345.614 447.215C346.048 446.108 345.006 444.917 343.268 444.576C341.444 444.235 341.705 449.428 342.574 450.11C343.268 450.791 345.179 448.322 345.614 447.215ZM354.908 479.735C357.079 481.183 361.769 480.502 361.943 477.692C359.859 476.33 354.734 476.586 354.908 479.735ZM353.778 415.376C352.91 415.972 352.389 417.504 352.736 418.185C352.649 418.185 352.475 418.185 352.389 418.185C351.694 418.185 351.607 420.909 352.389 421.42C353.084 421.846 354.908 419.292 355.863 418.611C356.818 418.015 358.642 417.589 358.99 417.845C359.251 418.015 360.901 417.589 362.638 416.738C362.985 416.568 363.333 416.142 363.68 415.546C363.246 413.503 362.812 411.545 362.291 409.587C361.422 410.268 360.38 410.949 359.945 411.289C358.816 412.141 354.908 414.61 353.778 415.376ZM305.137 470.711C304.703 470.456 304.79 470.456 305.137 470.711V470.711ZM318.34 482.8C317.558 481.098 315.039 478.203 312.694 476.415C312.694 476.415 312.694 476.415 311.825 474.968C310.87 473.351 310.87 473.351 310.87 473.351C310.001 471.648 307.396 470.286 307.135 469.775C306.874 469.264 306.093 471.307 305.137 470.711C305.571 471.052 306.614 471.733 308.004 472.669C310.436 474.372 315.213 486.12 316.342 486.972C317.384 487.823 319.122 484.503 318.34 482.8ZM280.382 463.816C279.687 465.178 283.943 467.987 284.204 467.306C284.552 466.625 283.683 463.39 282.901 462.709C282.206 462.028 281.077 462.539 280.382 463.816ZM224.879 526.558C225.053 527.92 227.919 529.027 228.788 528.856C229.656 528.601 232.002 524.43 232.262 523.238C232.61 522.046 232.87 519.407 232.87 518.811C232.87 518.215 233.218 516.768 233.565 516.598C233.913 516.427 234.434 514.98 234.694 513.448C235.042 511.83 232.957 504.424 232.87 503.147C232.783 501.87 231.307 503.828 230.959 505.105C230.525 506.382 226.79 509.106 225.921 510.213C225.053 511.319 224.184 515.15 224.532 515.746C224.879 516.427 224.184 518.981 223.837 519.662C223.489 520.343 224.705 525.196 224.879 526.558ZM89.2917 577.807C90.1603 577.807 90.9421 577.807 91.8107 577.807C92.245 575.083 89.118 575.594 89.2917 577.807ZM156.695 298.915C155.652 299.001 152.873 298.49 152.438 297.979C152.004 297.468 147.835 297.043 146.706 297.553C145.49 298.064 146.358 294.744 148.009 294.404C149.659 294.063 148.269 291.764 146.532 291.764C144.795 291.764 140.452 291.083 139.41 291.339C138.367 291.594 136.369 290.658 135.675 290.573C134.98 290.487 129.768 292.105 127.249 292.02C124.817 291.935 118.737 292.19 117.434 292.531C116.131 292.871 115.176 295.425 115.35 296.276C115.523 297.213 109.53 297.128 107.619 297.213C105.708 297.213 95.5456 299.341 92.9398 300.788C90.3341 302.236 88.2494 305.896 89.118 305.896C89.9866 305.981 87.6414 308.025 86.2517 308.535C84.8619 309.046 81.4744 309.216 80.6058 309.983C79.8241 310.749 81.4744 311.26 81.735 311.856C82.0824 312.366 82.951 311.43 83.9065 311.941C84.7751 312.451 87.7283 312.707 88.51 312.962C89.2917 313.303 85.9911 313.899 84.4276 313.984C82.8642 314.069 83.2116 317.049 84.5145 317.474C85.8174 317.9 89.0312 318.326 89.3786 317.815C89.726 317.304 93.2004 318.411 94.8507 318.581C96.4142 318.751 97.6302 322.667 98.1514 323.519C98.6726 324.37 98.7594 327.35 98.5857 328.201C98.4988 329.052 101.365 330.585 101.886 330.074C102.408 329.563 102.234 331.436 101.105 331.351C99.9754 331.266 100.67 334.586 102.147 335.011C103.537 335.522 102.581 337.48 101.799 338.161C100.931 338.757 101.452 340.715 100.583 341.396C99.7149 342.077 103.624 348.632 103.624 352.038C103.624 355.443 105.795 358.167 106.577 358.167C107.445 358.167 110.225 358.848 110.572 359.529C110.92 360.21 112.309 359.019 112.831 358.508C113.352 357.997 114.481 356.294 115.35 354.932C116.218 353.485 118.129 346.76 118.39 345.993C118.65 345.227 121.864 345.738 122.646 345.312C123.341 344.972 125.512 343.269 126.12 342.844C126.728 342.333 131.332 340.46 132.635 339.523C133.851 338.672 136.022 334.756 136.978 333.99C137.933 333.138 136.456 333.394 135.24 332.628C134.024 331.862 134.545 330.84 134.893 330.499C135.24 330.159 138.975 331.095 140.278 331.606C141.581 332.117 144.013 330.329 143.058 329.648C142.102 328.967 142.623 328.967 143.058 329.308C143.492 329.563 144.013 327.094 143.492 326.583C142.971 326.073 147.227 323.008 146.532 320.198C145.75 317.304 147.661 314.324 148.877 314.324C150.006 314.324 149.659 311.089 148.356 310.749C146.966 310.408 148.269 310.153 148.79 309.727C149.312 309.302 149.92 306.407 149.659 305.811C149.312 305.215 151.744 304.619 152.178 303.938C152.612 303.257 155.392 301.98 156.347 301.81C157.216 301.299 157.737 298.83 156.695 298.915ZM180.581 301.299C179.278 300.874 176.585 302.321 176.933 303.087C177.28 303.938 174.761 302.065 173.024 302.917C171.287 303.853 170.766 306.833 171.634 307.173C172.416 307.599 173.024 309.983 173.024 310.408C173.024 310.919 176.412 310.579 177.28 309.812C178.149 309.131 177.975 312.196 177.193 313.047C176.325 313.899 177.454 315.601 178.409 315.686C179.365 315.857 180.668 317.985 181.623 317.985C182.579 317.985 184.229 314.324 184.576 312.962C184.924 311.6 188.138 312.707 189.614 313.133C191.091 313.558 191.612 308.11 190.049 307.258C188.485 306.492 186.487 306.833 185.792 306.237C185.098 305.641 184.055 305.045 183.274 304.96C182.579 304.96 181.884 301.725 180.581 301.299ZM193.436 303.853C196.042 304.194 198.908 302.151 199.603 301.555C200.211 300.959 192.394 299.426 189.441 299.341C186.487 299.256 184.055 299.682 184.142 300.192C184.142 300.788 190.83 303.513 193.436 303.853ZM146.098 372.64C145.403 372.384 145.055 374.853 145.229 375.79C145.403 376.726 147.748 376.641 148.79 376.471C149.833 376.3 150.614 375.534 150.528 374.683C150.441 373.831 149.051 370.086 148.443 370.086C147.922 370.171 146.793 372.895 146.098 372.64ZM153.828 343.439C153.307 342.503 149.225 342.588 148.269 342.588C147.314 342.503 144.274 341.567 143.666 340.885C143.145 340.29 142.623 343.354 141.755 343.78C140.799 344.206 142.189 344.802 142.623 344.461C142.971 344.12 142.623 346.079 142.189 346.674C141.755 347.355 144.882 347.781 145.229 348.803C145.577 349.824 146.879 350.42 148.096 350.25C149.312 350.08 151.744 348.803 152.612 348.718C153.394 348.547 154.349 344.376 153.828 343.439ZM239.298 320.539C240.688 319.177 246.42 317.304 247.115 315.857C247.723 314.409 246.681 313.303 246.16 313.303C245.552 313.303 244.857 313.984 244.77 314.239C244.596 314.495 237.995 316.027 235.997 316.963C233.913 317.9 231.567 319.432 230.786 320.284C229.917 321.135 228.527 327.52 228.006 328.286C227.485 328.967 230.178 331.606 231.394 332.372C232.61 333.053 234.26 332.713 234.694 332.543C235.129 332.372 234.086 327.945 233.478 326.328C232.696 324.796 237.908 321.986 239.298 320.539ZM232.175 303.853C234.347 305.981 235.563 302.917 237.908 303.172C237.908 298.916 232.002 300.363 232.175 303.853ZM274.476 304.619C274.389 305.386 280.469 306.067 282.293 305.726C284.03 305.386 281.946 302.746 279.34 302.832C276.647 303.087 274.476 303.853 274.476 304.619ZM54.4612 348.803C53.8531 349.399 54.3743 352.293 55.5903 352.378C56.8064 352.463 58.7173 347.951 60.1939 348.888C61.6705 349.824 62.7128 350.165 62.4522 349.654C62.1916 349.143 57.9355 347.355 57.4144 347.015C56.8932 346.76 55.0692 348.292 54.4612 348.803ZM70.009 447.726C70.009 448.237 72.7016 448.152 73.1359 447.385C73.5702 446.619 73.3096 445.938 72.6148 445.938C71.833 445.853 70.009 447.215 70.009 447.726ZM58.1961 443.469C59.499 443.214 58.891 445.257 59.1516 445.938C59.499 446.619 62.5391 447.215 63.1471 447.726C63.7551 448.237 65.3186 446.789 66.5346 446.96C67.7506 447.13 66.1003 442.873 64.1025 442.958C62.1048 443.129 60.4545 441.171 60.0202 440.915C59.499 440.745 57.1538 439.298 56.4589 438.787C55.764 438.276 50.6394 437.765 48.8153 437.765C47.0781 437.765 45.0804 439.553 44.8198 440.064C44.5592 440.66 47.5993 441 48.4679 440.575C49.3365 440.149 53.5057 441.086 54.2874 442.022C55.156 443.044 56.8932 443.64 58.1961 443.469ZM52.6371 447.726C52.6371 448.237 55.3298 447.896 55.9378 447.896C56.6326 447.896 56.5458 447.47 55.8509 446.96C55.2429 446.449 52.6371 447.215 52.6371 447.726ZM54.548 434.19C53.8531 433.935 53.332 434.956 53.332 435.467C53.332 435.978 53.6794 436.403 54.2006 436.403C54.6349 436.488 55.2429 434.53 54.548 434.19ZM60.107 434.616C59.8464 434.105 58.7173 433.679 58.3698 433.679C58.0224 433.679 57.7618 434.53 57.8487 435.637C57.9355 436.744 60.3676 435.126 60.107 434.616ZM64.1894 440.745C65.2317 440.234 65.4054 438.957 64.7974 439.042C64.1894 439.128 62.9734 437.255 62.2785 436.914C61.5836 436.659 60.9756 438.021 60.9756 438.702C60.9756 439.298 61.4099 439.723 61.8442 439.638C62.2785 439.468 63.0602 441.256 64.1894 440.745ZM362.899 481.864C362.377 482.119 359.685 482.46 359.337 481.949C358.99 481.438 358.469 483.056 357.861 483.311C357.253 483.566 357.6 484.928 358.469 484.503C359.077 484.247 361.596 485.61 363.68 486.887C364.115 484.843 364.462 482.8 364.81 480.757C364.028 481.183 363.246 481.693 362.899 481.864Z" fill="url(#paint2_radial_66_276)"/>
<mask id="mask0_66_276" style="mask-type:alpha" maskUnits="userSpaceOnUse" x="5" y="196" width="431" height="397">
<path d="M435.669 343.043L113.5 196.027L5.84981 445.361L328.018 592.377L435.669 343.043Z" fill="url(#paint3_radial_66_276)"/>
</mask>
<g mask="url(#mask0_66_276)">
</g>
<path d="M230.09 276.526C227.05 275.334 223.923 274.398 220.71 273.717C192.22 267.502 161.906 281.804 135.848 309.983C110.138 337.736 88.5966 379.025 77.2181 427.294C77.2181 427.379 77.2181 427.465 77.1312 427.465C65.7526 475.734 66.7081 521.961 77.3918 557.716C87.2069 590.407 105.187 614.414 129.594 623.353C105.882 614.073 88.3361 590.322 78.6947 558.227C68.011 522.557 67.0555 476.33 78.4341 427.975C78.4341 427.89 78.4341 427.805 78.521 427.805C89.8995 379.535 111.527 338.246 137.151 310.493C163.209 282.315 193.61 268.013 222.013 274.227C224.705 274.738 227.398 275.504 230.09 276.526Z" fill="url(#paint4_linear_66_276)"/>
<path d="M5.21185 499.571C5.29871 502.721 5.64615 505.956 6.34102 509.106C11.9 537.114 37.3498 558.567 74.0044 570.656C110.138 582.574 157.216 585.384 206.725 576.36C206.812 576.36 206.899 576.36 206.899 576.36C256.409 567.251 299.144 548.011 328.155 524.174C354.734 502.38 369.847 476.671 368.457 451.301C369.239 476.245 354.126 501.444 328.068 522.897C299.057 546.734 256.409 565.974 206.812 575.083C206.725 575.083 206.639 575.083 206.639 575.083C157.129 584.107 109.964 581.297 73.9176 569.379C37.2629 557.29 11.8132 535.837 6.25417 507.829C5.64615 505.019 5.29871 502.295 5.21185 499.571Z" fill="url(#paint5_linear_66_276)"/>
<g opacity="0.5">
<g opacity="0.5">
<path opacity="0.5" d="M280.294 564.867C272.477 564.867 266.05 558.567 266.05 550.905C266.05 543.244 272.477 536.944 280.294 536.944C288.112 536.944 294.539 543.244 294.539 550.905C294.539 558.567 288.199 564.867 280.294 564.867ZM280.294 537.029C272.477 537.029 266.136 543.244 266.136 550.905C266.136 558.567 272.477 564.782 280.294 564.782C288.112 564.782 294.452 558.567 294.452 550.905C294.452 543.244 288.112 537.029 280.294 537.029Z" fill="white"/>
</g>
<g opacity="0.5">
<path opacity="0.5" d="M280.294 559.249C275.603 559.249 271.782 555.503 271.782 550.906C271.782 546.309 275.603 542.563 280.294 542.563C284.984 542.563 288.806 546.309 288.806 550.906C288.893 555.503 285.071 559.249 280.294 559.249ZM280.294 542.648C275.69 542.648 271.868 546.309 271.868 550.906C271.868 555.418 275.603 559.164 280.294 559.164C284.897 559.164 288.719 555.503 288.719 550.906C288.719 546.309 284.984 542.648 280.294 542.648Z" fill="white"/>
</g>
</g>
<path d="M291.152 311.855C277.168 272.61 255.627 249.624 230.524 247.07C212.023 245.112 193.87 252.263 176.324 271.418C177.019 271.418 177.714 271.333 178.409 271.333C195.346 253.285 212.718 246.73 230.351 248.517C254.845 250.986 275.952 273.716 289.675 312.366C303.747 351.952 308.35 403.202 302.617 456.665C296.798 510.127 281.424 559.333 259.188 595.174C237.473 630.163 212.023 648.126 187.529 645.572C176.15 644.38 165.38 638.761 155.825 629.141C154.87 629.056 154.088 628.886 153.393 628.801C163.643 639.527 175.108 645.827 187.442 647.104C189.006 647.274 190.569 647.36 192.132 647.36C215.758 647.36 239.905 629.312 260.578 596.025C282.9 560.014 298.448 510.553 304.268 456.92C309.914 403.117 305.31 351.612 291.152 311.855Z" fill="url(#paint6_linear_66_276)"/>
<path d="M330.152 282.485C311.043 263.756 276.907 261.798 234.085 276.952C233.477 277.207 232.869 277.377 232.261 277.633C233.13 277.888 233.999 278.144 234.867 278.399C276.994 263.501 310.435 265.374 329.023 283.592C347.611 301.81 349.521 334.671 334.234 376.045C318.6 418.441 287.07 464.242 245.29 505.19C203.511 546.053 156.781 577.041 113.525 592.365C71.3111 607.348 37.7834 605.475 19.1955 587.257C2.86598 571.252 -0.521532 543.329 9.46729 508.425C9.20671 507.744 8.85927 506.552 8.5987 505.701C-2.43244 542.222 0.868217 571.508 18.0664 588.364C28.6632 598.75 43.8636 603.943 62.6252 603.943C77.6518 603.943 95.0237 600.623 114.133 593.812C157.562 578.403 204.553 547.33 246.506 506.297L246.593 506.212C288.459 465.178 320.163 419.122 335.885 376.556C351.259 334.671 349.261 301.214 330.152 282.485Z" fill="url(#paint7_linear_66_276)"/>
<g opacity="0.1" filter="url(#filter0_b_66_276)">
<path d="M231.588 301.409L336.79 351.897L273.934 428.557L154.292 363.838L231.588 301.409Z" fill="#F1F3F8"/>
</g>
<g opacity="0.1" filter="url(#filter1_b_66_276)">
<path d="M396.366 198.135L336.701 352.305L273.937 428.557L396.366 198.135Z" fill="#C4C4C4"/>
<path d="M396.366 198.135L336.701 352.305L273.937 428.557L396.366 198.135Z" fill="url(#paint8_linear_66_276)"/>
</g>
<g opacity="0.1" filter="url(#filter2_b_66_276)">
<path d="M394.804 200.585L231.604 302.473L154.583 364.004L394.804 200.585Z" fill="#F1F3F8"/>
</g>
<g opacity="0.2" filter="url(#filter3_b_66_276)">
<path d="M395.341 200.159L274.457 429.345L155.023 364.248L395.341 200.159Z" fill="url(#paint9_linear_66_276)"/>
</g>
<path d="M476.918 102.108C476.804 101.826 476.804 101.826 476.918 102.108C476.804 101.826 476.804 101.826 476.804 101.826C476.689 101.544 476.984 101.417 476.87 101.135C477.05 100.726 477.05 100.726 477.345 100.599C477.525 100.189 477.82 100.062 478.229 100.216L529.875 105.358C530.169 105.23 530.284 105.512 530.513 106.075C530.856 106.92 530.61 108.02 530.135 108.557C529.66 109.094 529.366 109.221 529.251 108.94C529.251 108.94 529.366 109.221 529.66 109.094L478.015 103.952C477.72 104.079 477.605 103.798 477.376 103.234C476.738 102.517 476.624 102.235 476.918 102.108ZM528.613 108.222C528.613 108.222 528.499 107.941 528.384 107.659C528.499 107.941 528.613 108.222 528.613 108.222Z" fill="url(#paint10_linear_66_276)"/>
<path d="M425.918 91.1078C425.804 90.8261 425.804 90.8261 425.918 91.1078C425.804 90.8261 425.804 90.8261 425.804 90.8261C425.689 90.5445 425.984 90.4169 425.87 90.1353C426.05 89.7261 426.05 89.7261 426.345 89.5986C426.525 89.1894 426.82 89.0618 427.229 89.216L478.875 94.3578C479.169 94.2303 479.284 94.512 479.513 95.0753C479.856 95.9203 479.61 97.0204 479.135 97.5571C478.66 98.0938 478.366 98.2213 478.251 97.9397C478.251 97.9397 478.366 98.2213 478.66 98.0938L427.015 92.952C426.72 93.0795 426.605 92.7978 426.376 92.2345C425.738 91.517 425.624 91.2353 425.918 91.1078ZM477.613 97.2222C477.613 97.2222 477.499 96.9405 477.384 96.6589C477.499 96.9405 477.613 97.2222 477.613 97.2222Z" fill="url(#paint11_linear_66_276)"/>
<path d="M504.002 82.4586L506.294 79.4112C506.646 78.9424 507.238 78.6513 508.308 78.7156L506.016 81.7629C505.185 81.8763 504.354 81.9897 504.002 82.4586Z" fill="#4074E4"/>
<path d="M506.648 80.506L508.844 77.5196L607.73 88.9412L606.182 92.0012L506.648 80.506Z" fill="#4074E4"/>
<path d="M609.811 95.0618L612.009 92.0742L629.188 134.396L626.99 137.383L609.811 95.0618Z" fill="#4074E4"/>
<path d="M605.441 91.6535L607.638 88.6661C609.473 89.008 611.464 90.5551 612.285 92.2759L610.088 95.2633C609.489 93.7144 607.276 91.9955 605.441 91.6535Z" fill="#4074E4"/>
<path d="M503.657 83.0537C502.842 81.342 503.855 79.9641 505.682 80.2978L605.102 91.6813C606.93 92.0151 608.911 93.5491 609.726 95.2608L626.56 136.756C627.375 138.468 626.363 139.846 624.535 139.512L525.115 128.129C523.288 127.795 521.306 126.261 520.491 124.549L503.657 83.0537Z" fill="#1C4296"/>
<path d="M606.999 94.2425C607.66 94.7537 608.152 95.4945 608.423 96.0649L625.254 137.551C625.526 138.121 625.357 138.351 625.357 138.351C625.357 138.351 624.968 138.41 624.579 138.469L525.352 126.87C524.743 126.758 523.914 126.477 523.253 125.966C522.593 125.454 522.101 124.714 521.83 124.143L504.998 82.6576C504.727 82.0871 504.895 81.8575 504.895 81.8575C504.895 81.8575 505.284 81.7983 505.673 81.739L605.069 93.1089C605.678 93.2201 606.339 93.7313 606.999 94.2425Z" fill="#1C4296"/>
<path d="M555.767 121.637L557.864 127.228C558.405 128.368 559.725 129.389 560.724 129.44L566.547 129.976C567.766 130.197 568.443 129.277 567.902 128.137L565.805 122.546C565.264 121.405 563.944 120.384 562.945 120.333L557.122 119.798C555.733 119.807 555.225 120.496 555.767 121.637ZM544.069 120.166L546.167 125.757C546.708 126.898 548.028 127.919 549.027 127.97L555.07 128.675C556.289 128.896 556.966 127.977 556.425 126.837L554.328 121.245C553.787 120.105 552.466 119.084 551.468 119.033L545.255 118.557C544.256 118.506 543.748 119.196 544.069 120.166ZM532.423 119.095L534.52 124.687C535.061 125.827 536.381 126.848 537.38 126.899L543.203 127.435C544.422 127.656 545.1 126.736 544.558 125.596L542.461 120.005C541.92 118.864 540.6 117.843 539.601 117.792L533.778 117.257C532.559 117.036 532.051 117.725 532.423 119.095ZM520.726 117.625L522.823 123.216C523.364 124.357 524.684 125.378 525.683 125.429L531.506 125.964C532.725 126.185 533.403 125.266 532.861 124.125L530.764 118.534C530.223 117.394 528.903 116.372 527.904 116.322L522.081 115.786C520.862 115.565 520.185 116.485 520.726 117.625ZM610.952 126.436L616.775 126.972C617.994 127.193 619.314 128.214 619.635 129.184L621.733 134.776C622.274 135.916 621.596 136.835 620.378 136.614L614.554 136.079C613.336 135.858 612.016 134.837 611.694 133.866L609.597 128.275C609.225 126.905 609.733 126.215 610.952 126.436ZM598.069 126.575L600.166 132.166C600.708 133.306 602.028 134.328 603.027 134.379L609.07 135.084C610.289 135.305 610.966 134.386 610.425 133.245L608.328 127.654C607.786 126.514 606.466 125.492 605.468 125.442L599.644 124.906C598.256 124.915 597.748 125.604 598.069 126.575ZM586.423 125.504L588.52 131.096C589.061 132.236 590.381 133.257 591.38 133.308L597.203 133.843C598.422 134.064 599.1 133.145 598.558 132.005L596.461 126.413C595.92 125.273 594.6 124.252 593.601 124.201L587.778 123.666C586.559 123.444 585.882 124.364 586.423 125.504ZM574.726 124.034L576.823 129.625C577.364 130.765 578.684 131.787 579.683 131.837L585.506 132.373C586.725 132.594 587.402 131.674 586.861 130.534L584.764 124.943C584.223 123.802 582.903 122.781 581.904 122.73L576.081 122.195C574.862 121.974 574.184 122.893 574.726 124.034ZM606.809 115.654L612.462 116.419C613.681 116.64 615.001 117.661 615.323 118.631L617.42 124.223C617.961 125.363 617.283 126.282 616.065 126.061L610.241 125.526C609.023 125.305 607.703 124.284 607.381 123.313L605.284 117.722C604.912 116.352 605.59 115.433 606.809 115.654ZM593.756 116.022L595.854 121.613C596.395 122.754 597.715 123.775 598.714 123.826L604.537 124.361C605.756 124.582 606.433 123.663 605.892 122.522L603.795 116.931C603.253 115.79 601.933 114.769 600.935 114.718L595.111 114.183C593.723 114.192 593.215 114.881 593.756 116.022ZM582.059 114.551L584.156 120.143C584.698 121.283 586.018 122.304 587.017 122.355L592.84 122.89C594.059 123.111 594.736 122.192 594.195 121.052L592.098 115.46C591.556 114.32 590.236 113.299 589.238 113.248L583.414 112.713C582.246 112.891 581.738 113.581 582.059 114.551ZM570.362 113.081L572.679 118.842C573.221 119.983 574.541 121.004 575.539 121.055L581.363 121.59C582.581 121.811 583.259 120.892 582.718 119.751L580.621 114.16C580.079 113.02 578.759 111.998 577.76 111.947L571.937 111.412C570.549 111.421 570.041 112.11 570.362 113.081ZM601.09 106.539L603.187 112.131C603.728 113.271 605.048 114.292 606.047 114.343L611.87 114.878C613.089 115.099 613.767 114.18 613.225 113.04L611.128 107.448C610.587 106.308 609.267 105.287 608.268 105.236L602.445 104.701C601.277 104.88 600.769 105.569 601.09 106.539ZM589.443 105.469L591.541 111.06C592.082 112.201 593.402 113.222 594.401 113.273L600.444 113.978C601.663 114.199 602.34 113.28 601.799 112.139L599.702 106.548C599.161 105.408 597.84 104.386 596.842 104.336L591.018 103.8C589.58 103.409 588.902 104.328 589.443 105.469ZM577.746 103.998L579.843 109.59C580.385 110.73 581.705 111.751 582.704 111.802L588.527 112.337C589.746 112.558 590.423 111.639 589.882 110.499L587.785 104.907C587.243 103.767 585.923 102.746 584.925 102.695L579.101 102.16C577.883 101.938 577.205 102.858 577.746 103.998ZM566.049 102.528L568.146 108.119C568.688 109.259 570.008 110.281 571.006 110.331L576.83 110.867C578.048 111.088 578.726 110.169 578.185 109.028L576.088 103.437C575.546 102.296 574.226 101.275 573.227 101.224L567.404 100.689C566.016 100.698 565.508 101.387 566.049 102.528ZM596.777 95.9863L598.874 101.578C599.415 102.718 600.736 103.739 601.734 103.79L607.558 104.325C608.776 104.546 609.454 103.627 608.912 102.487L606.815 96.8953C606.274 95.7549 604.954 94.7338 603.955 94.6829L598.132 94.1477C596.744 94.1564 596.236 94.8459 596.777 95.9863ZM585.08 94.5157L587.177 100.107C587.718 101.248 589.038 102.269 590.037 102.32L595.86 102.855C597.079 103.076 597.757 102.157 597.215 101.016L595.118 95.4248C594.577 94.2844 593.257 93.2633 592.258 93.2124L586.435 92.6771C585.267 92.856 584.759 93.5455 585.08 94.5157ZM573.603 93.2154L575.7 98.8068C576.241 99.9472 577.561 100.968 578.56 101.019L584.383 101.554C585.602 101.776 586.28 100.856 585.738 99.7158L583.641 94.1244C583.1 92.984 581.78 91.9629 580.781 91.912L574.958 91.3768C573.57 91.3855 573.061 92.075 573.603 93.2154ZM561.736 91.9746L563.833 97.5661C564.375 98.7064 565.695 99.7275 566.694 99.7785L572.517 100.314C573.736 100.535 574.413 99.6155 573.872 98.4751L571.775 92.8837C571.233 91.7433 569.913 90.7222 568.914 90.6713L563.091 90.136C561.872 89.9149 561.195 90.8342 561.736 91.9746ZM551.454 111.084L553.72 116.445C554.261 117.586 555.581 118.607 556.58 118.658L562.403 119.193C563.622 119.414 564.3 118.495 563.758 117.354L561.661 111.763C561.12 110.622 559.8 109.601 558.801 109.55L552.978 109.015C551.59 109.024 550.912 109.943 551.454 111.084ZM539.757 109.613L541.854 115.204C542.395 116.345 543.715 117.366 544.714 117.417L550.537 117.952C551.756 118.173 552.433 117.254 551.892 116.113L549.795 110.522C549.254 109.382 547.933 108.361 546.935 108.31L541.111 107.774C539.893 107.553 539.215 108.473 539.757 109.613ZM528.059 108.142L530.156 113.734C530.698 114.874 532.018 115.895 533.017 115.946L538.84 116.482C540.059 116.703 540.736 115.783 540.195 114.643L538.148 109.452C537.607 108.311 536.287 107.29 535.288 107.239L529.465 106.704C528.246 106.483 527.738 107.172 528.059 108.142ZM516.362 106.672L518.679 112.434C519.221 113.574 520.541 114.595 521.539 114.646L527.363 115.181C528.582 115.402 529.259 114.483 528.718 113.343L526.621 107.751C526.079 106.611 524.759 105.59 523.76 105.539L517.937 105.003C516.549 105.012 516.041 105.702 516.362 106.672ZM547.09 100.131L549.187 105.722C549.728 106.862 551.049 107.883 552.047 107.934L557.871 108.47C559.089 108.691 559.767 107.771 559.226 106.631L557.128 101.04C556.587 99.8992 555.267 98.8781 554.268 98.8272L548.445 98.2919C547.277 98.4709 546.769 99.1603 547.09 100.131ZM535.444 99.06L537.541 104.651C538.082 105.792 539.402 106.813 540.401 106.864L546.444 107.569C547.663 107.79 548.34 106.871 547.799 105.731L545.702 100.139C545.161 98.9989 543.841 97.9778 542.842 97.9269L537.019 97.3916C535.58 97.0003 534.902 97.9196 535.444 99.06ZM523.746 97.5895L525.844 103.181C526.385 104.321 527.705 105.342 528.704 105.393L534.527 105.929C535.746 106.15 536.423 105.23 535.882 104.09L533.785 98.4986C533.243 97.3582 531.923 96.337 530.925 96.2861L525.101 95.7509C523.883 95.5298 523.205 96.4491 523.746 97.5895ZM512.049 96.1189L514.146 101.71C514.688 102.851 516.008 103.872 517.007 103.923L522.83 104.458C524.049 104.679 524.726 103.76 524.185 102.619L522.088 97.028C521.546 95.8876 520.226 94.8665 519.228 94.8156L513.404 94.2803C512.236 94.4592 511.728 95.1487 512.049 96.1189ZM542.777 89.5776L544.874 95.169C545.416 96.3094 546.736 97.3305 547.734 97.3814L553.558 97.9166C554.776 98.1377 555.454 97.2184 554.913 96.078L552.815 90.4866C552.274 89.3462 550.954 88.3251 549.955 88.2742L544.132 87.739C542.913 87.5179 542.236 88.4372 542.777 89.5776ZM531.08 88.107L533.177 93.6984C533.718 94.8388 535.038 95.8599 536.037 95.9108L541.86 96.4461C543.079 96.6672 543.757 95.7479 543.215 94.6075L541.118 89.0161C540.577 87.8757 539.257 86.8546 538.258 86.8037L532.435 86.2684C531.267 86.4473 530.759 87.1368 531.08 88.107ZM519.603 86.8067L521.7 92.3981C522.241 93.5385 523.561 94.5596 524.56 94.6105L530.383 95.1457C531.602 95.3668 532.28 94.4475 531.738 93.3071L529.641 87.7157C529.1 86.5753 527.78 85.5542 526.781 85.5033L520.958 84.9681C519.57 84.9768 519.062 85.6663 519.603 86.8067ZM507.736 85.5659L509.833 91.1574C510.375 92.2977 511.695 93.3188 512.694 93.3698L518.517 93.905C519.736 94.1261 520.413 93.2068 519.872 92.0664L517.775 86.475C517.233 85.3346 515.913 84.3135 514.915 84.2626L509.091 83.7273C507.873 83.5062 507.195 84.4255 507.736 85.5659Z" fill="url(#paint12_linear_66_276)"/>
<path d="M555.705 86.5831C555.095 86.4726 554.316 86.5918 553.487 86.3111L572.295 132.975L575.901 133.239L557.313 86.7446C556.534 86.8639 556.314 86.6937 555.705 86.5831Z" fill="#1C4296"/>
<path opacity="0.8" d="M530.174 113.721L528.937 110.233C529.786 109.083 530.635 107.932 531.653 106.552L535.267 106.818C536.488 107.041 537.811 108.065 538.132 109.037L540.233 114.639C540.775 115.782 540.096 116.702 538.875 116.48L533.04 115.939C531.818 115.716 530.496 114.693 530.174 113.721ZM534.555 105.906C535.776 106.128 536.455 105.208 535.913 104.065L534.828 101.78C533.979 102.93 532.961 104.31 532.112 105.461L534.555 105.906ZM551.295 110.912L553.566 116.284C555.263 113.983 556.791 111.913 558.489 109.612L552.823 108.841C551.432 108.849 550.753 109.769 551.295 110.912ZM542.447 97.556L538.393 96.9481C537.544 98.0985 536.865 99.0188 536.016 100.169L537.694 103.998C538.236 105.141 539.559 106.165 540.56 106.216L546.276 107.388C547.497 107.61 548.176 106.69 547.634 105.547L545.533 99.9449C544.991 98.8022 543.668 97.7784 542.447 97.556ZM551.954 116.121L549.854 110.519C549.311 109.376 547.989 108.352 546.988 108.3L541.153 107.76C539.931 107.537 539.252 108.458 539.794 109.6L541.895 115.203C542.437 116.345 543.76 117.369 544.761 117.421L550.596 117.962C551.818 118.184 552.497 117.264 551.954 116.121ZM559.135 106.859L557.034 101.256C556.492 100.114 555.169 99.0899 554.168 99.0381L548.333 98.4974C547.112 98.275 546.433 99.1953 546.975 100.338L549.076 105.94C549.618 107.083 550.94 108.107 551.941 108.159L557.777 108.699C559.168 108.692 559.677 108.001 559.135 106.859ZM532.224 118.922L534.325 124.524C534.867 125.667 536.19 126.691 537.19 126.743L543.026 127.284C544.247 127.506 544.926 126.586 544.384 125.443L542.283 119.841C541.741 118.698 540.418 117.674 539.417 117.622L533.582 117.082C532.361 116.859 531.851 117.549 532.224 118.922ZM596.715 95.825L598.816 101.427C599.358 102.57 600.681 103.594 601.681 103.646L607.127 104.246C607.636 103.556 608.145 102.865 608.654 102.175L606.604 96.9736C606.062 95.8309 604.739 94.807 603.739 94.7552L597.903 94.2145C596.682 93.9921 596.173 94.6823 596.715 95.825ZM599.424 106.236C598.882 105.093 597.559 104.069 596.558 104.018L590.723 103.477C589.502 103.254 588.823 104.175 589.365 105.317L591.466 110.92C592.008 112.063 593.331 113.086 594.331 113.138L600.387 113.85C600.727 113.389 601.236 112.699 601.575 112.239L599.424 106.236ZM586.994 130.593L584.894 124.991C584.351 123.848 583.029 122.824 582.028 122.772L576.193 122.232C576.193 122.232 576.193 122.232 575.972 122.061L574.784 123.672C574.784 123.672 574.784 123.672 575.004 123.842L577.105 129.445C577.647 130.587 578.97 131.611 579.971 131.663L585.806 132.204C586.637 132.485 587.316 131.565 586.994 130.593ZM520.669 90.458L521.482 92.1721C521.753 92.7434 522.465 93.656 523.297 93.9379C524.994 91.6372 526.861 89.1063 528.559 86.8056C527.898 86.2937 527.236 85.7818 526.405 85.4999L524.404 85.3964C523.215 87.0069 522.027 88.6174 520.669 90.458ZM595.043 114.051C593.822 113.828 593.143 114.749 593.685 115.891L595.464 120.522C596.822 118.681 598.18 116.84 599.708 114.77L595.043 114.051ZM581.964 114.409L584.065 120.012C584.607 121.154 585.93 122.178 586.931 122.23L592.766 122.771C592.986 122.941 593.156 122.711 593.377 122.882C593.716 122.422 593.886 122.192 594.225 121.731C594.225 121.731 594.175 121.331 593.954 121.16L591.853 115.558C591.311 114.415 589.989 113.391 588.988 113.339L583.152 112.799C582.762 112.858 582.542 112.687 582.372 112.918L581.693 113.838C581.913 114.009 581.744 114.239 581.964 114.409ZM521.429 96.4687C520.938 95.7267 519.835 94.8735 519.055 94.9924L517.613 94.5993C516.255 96.4399 514.897 98.2805 513.539 100.121L513.912 101.494C514.234 102.466 515.115 103.148 515.946 103.43C518.034 101.07 519.732 98.7694 521.429 96.4687ZM583.391 111.537L588.836 112.137C590.057 112.36 590.736 111.439 590.194 110.297L588.144 105.095L583.391 111.537ZM612.765 125.238L616.208 125.735C617.43 125.957 618.109 125.037 617.566 123.894L616.16 120.637C614.972 122.247 613.953 123.628 612.765 125.238ZM568.795 90.4794L562.96 89.9387C561.739 89.7163 561.06 90.6366 561.602 91.7793L563.703 97.3816C564.194 98.1236 565.076 98.8062 566.128 99.2587C567.825 96.9579 569.692 94.4271 571.39 92.1264C570.678 91.2138 569.626 90.7613 568.795 90.4794ZM601.035 106.399L602.764 110.628C604.122 108.788 605.31 107.177 606.668 105.337L602.444 104.959C601.223 104.737 600.714 105.427 601.035 106.399ZM590.181 102.334L595.846 103.105C597.068 103.327 597.747 102.407 597.204 101.264L594.934 95.8921L590.181 102.334ZM518.513 93.8497C519.734 94.0721 520.413 93.1518 519.871 92.0091L519.65 91.8384C519.311 92.2986 518.802 92.9888 518.513 93.8497ZM541.905 96.4132C543.126 96.6357 543.805 95.7154 543.263 94.5727L542.127 91.8865C541.109 93.267 540.09 94.6474 539.072 96.0279L541.905 96.4132ZM543.146 90.5061L544.874 94.7356C545.416 95.8784 546.739 96.9022 547.74 96.954L553.575 97.4947C554.796 97.7171 555.476 96.7968 554.933 95.6541L552.833 90.0518C552.29 88.909 550.968 87.8852 549.967 87.8334L545.523 87.2851C544.504 88.6655 543.825 89.5858 543.146 90.5061ZM582.453 119.849L580.674 115.218L576.431 120.97L581.265 121.459C582.486 121.682 582.996 120.991 582.453 119.849ZM551.359 119.275L551.139 119.104L545.083 118.393C543.862 118.171 543.182 119.091 543.725 120.234L545.825 125.836L546.046 126.007C547.964 123.877 549.661 121.576 551.359 119.275ZM528.342 113.387L527.698 111.443C526.85 112.593 526.001 113.744 525.152 114.894L527.154 114.997C528.375 115.22 528.884 114.53 528.342 113.387ZM525.639 125.031L531.474 125.571C532.695 125.794 533.374 124.873 532.832 123.731L530.732 118.128C530.189 116.986 528.867 115.962 527.866 115.91L524.643 115.584C523.624 116.965 522.606 118.345 521.757 119.495L522.943 122.582C523.146 124.185 524.468 125.209 525.639 125.031ZM621.938 134.869L619.837 129.267C619.295 128.124 617.972 127.1 616.971 127.048L612.137 126.559C611.458 127.48 610.779 128.4 610.1 129.32L611.878 133.95C612.421 135.093 613.743 136.117 614.744 136.169L620.58 136.71C621.971 136.702 622.48 136.012 621.938 134.869ZM592.748 124.203L587.693 123.543C586.472 123.321 585.793 124.241 586.335 125.384L588.335 130.185C589.862 128.114 591.39 126.043 592.748 124.203ZM610.216 133.387L609.03 130.3C608.012 131.68 606.824 133.291 605.805 134.671L609.028 134.997C610.249 135.22 610.759 134.529 610.216 133.387Z" fill="url(#paint13_linear_66_276)"/>
<path d="M626.578 136.79L628.923 134.05C629.286 135.051 629.172 135.697 628.82 136.166L626.333 139.135C626.685 138.667 626.702 137.613 626.578 136.79Z" fill="#4074E4"/>
<path d="M506.561 80.6422L508.621 77.8665C507.607 77.7133 506.42 77.7366 506.074 78.2099L503.833 81.1781C504.179 80.7048 505.77 80.6979 506.561 80.6422Z" fill="#4074E4"/>
<path d="M332.075 61.4317L334.201 58.2733C334.528 57.7874 335.129 57.486 336.277 57.5535L334.152 60.7119C333.277 60.8289 332.402 60.9458 332.075 61.4317Z" fill="#4074E4"/>
<path d="M334.727 59.236L336.749 56.1492L443.166 68.1458L441.842 71.31L334.727 59.236Z" fill="#4074E4"/>
<path d="M445.972 74.3035L447.996 71.215L470.737 115.051L468.714 118.139L445.972 74.3035Z" fill="#4074E4"/>
<path d="M441.04 70.7765L443.062 67.6886C445.051 68.0464 447.334 69.6519 448.39 71.4349L446.368 74.5228C445.566 72.9182 443.029 71.1343 441.04 70.7765Z" fill="#4074E4"/>
<path d="M331.731 61.8766C330.684 60.1039 331.616 58.6797 333.596 59.0283L440.566 70.9832C442.545 71.3318 444.815 72.9228 445.863 74.6955L468.146 117.666C469.193 119.438 468.261 120.862 466.282 120.514L359.312 108.559C357.332 108.21 355.062 106.619 354.015 104.847L331.731 61.8766Z" fill="#1C4296"/>
<path d="M442.853 73.6374C443.609 74.1676 444.21 74.9351 444.559 75.5258L466.838 118.485C467.187 119.076 467.032 119.313 467.032 119.313C467.032 119.313 466.624 119.374 466.217 119.434L359.431 107.256C358.771 107.14 357.859 106.848 357.103 106.317C356.346 105.787 355.745 105.02 355.396 104.429L333.117 61.47C332.768 60.8792 332.923 60.6419 332.923 60.6419C332.923 60.6419 333.331 60.5813 333.738 60.5207L440.68 72.4611C441.34 72.5772 442.096 73.1073 442.853 73.6374Z" fill="#1C4296"/>
<path d="M391.23 101.901L394.048 107.691C394.744 108.872 396.255 109.931 397.323 109.985L403.575 110.547C404.895 110.777 405.519 109.827 404.824 108.646L402.006 102.856C401.31 101.675 399.798 100.616 398.73 100.562L392.478 100C391.002 100.007 390.534 100.72 391.23 101.901ZM378.63 100.362L381.448 106.152C382.144 107.333 383.656 108.392 384.724 108.446L391.228 109.185C392.547 109.415 393.172 108.465 392.476 107.284L389.658 101.494C388.962 100.313 387.451 99.2542 386.383 99.2001L379.723 98.699C378.655 98.6449 378.187 99.3578 378.63 100.362ZM366.127 99.2379L368.945 105.028C369.64 106.209 371.152 107.268 372.22 107.322L378.472 107.884C379.792 108.114 380.416 107.164 379.721 105.983L376.902 100.193C376.207 99.012 374.695 97.9533 373.627 97.8992L367.375 97.3369C366.055 97.1064 365.587 97.8192 366.127 99.2379ZM353.527 97.6993L356.345 103.489C357.041 104.67 358.553 105.729 359.621 105.783L365.872 106.345C367.192 106.576 367.817 105.625 367.121 104.444L364.303 98.6545C363.607 97.4734 362.095 96.4147 361.028 96.3606L354.776 95.7984C353.456 95.5678 352.831 96.5183 353.527 97.6993ZM450.448 106.947L456.7 107.509C458.02 107.74 459.532 108.798 459.975 109.803L462.794 115.593C463.489 116.774 462.865 117.725 461.545 117.494L455.293 116.932C453.973 116.701 452.462 115.642 452.018 114.638L449.2 108.848C448.66 107.429 449.128 106.716 450.448 106.947ZM436.756 107.072L439.574 112.862C440.27 114.043 441.782 115.101 442.85 115.156L449.354 115.894C450.673 116.125 451.298 115.174 450.602 113.993L447.784 108.203C447.088 107.022 445.577 105.964 444.509 105.909L438.257 105.347C436.781 105.354 436.313 106.067 436.756 107.072ZM424.253 105.947L427.071 111.737C427.766 112.918 429.278 113.977 430.346 114.031L436.598 114.593C437.918 114.824 438.542 113.873 437.847 112.692L435.028 106.902C434.333 105.721 432.821 104.663 431.753 104.609L425.501 104.046C424.181 103.816 423.557 104.766 424.253 105.947ZM411.653 104.409L414.471 110.199C415.167 111.38 416.679 112.438 417.747 112.493L423.998 113.055C425.318 113.285 425.943 112.335 425.247 111.154L422.429 105.364C421.733 104.183 420.221 103.124 419.153 103.07L412.902 102.508C411.582 102.277 410.957 103.228 411.653 104.409ZM444.908 95.7812L451.004 96.5811C452.323 96.8116 453.835 97.8703 454.279 98.8749L457.097 104.665C457.793 105.846 457.168 106.796 455.848 106.566L449.597 106.004C448.277 105.773 446.765 104.714 446.321 103.71L443.503 97.9198C442.964 96.5011 443.588 95.5507 444.908 95.7812ZM431.06 96.1436L433.878 101.934C434.573 103.115 436.085 104.173 437.153 104.227L443.405 104.79C444.725 105.02 445.349 104.07 444.654 102.889L441.835 97.0987C441.14 95.9177 439.628 94.859 438.56 94.8049L432.308 94.2426C430.832 94.2497 430.364 94.9626 431.06 96.1436ZM418.46 94.6051L421.278 100.395C421.974 101.576 423.486 102.635 424.554 102.689L430.805 103.251C432.125 103.482 432.75 102.531 432.054 101.35L429.236 95.5602C428.54 94.3791 427.029 93.3204 425.961 93.2663L419.709 92.7041C418.485 92.8876 418.016 93.6005 418.46 94.6051ZM405.861 93.0665L408.931 99.0329C409.626 100.214 411.138 101.273 412.206 101.327L418.458 101.889C419.778 102.12 420.402 101.169 419.706 99.988L416.888 94.1981C416.193 93.017 414.681 91.9583 413.613 91.9042L407.361 91.342C405.885 91.3491 405.417 92.0619 405.861 93.0665ZM437.867 86.34L440.685 92.1299C441.381 93.3109 442.892 94.3696 443.96 94.4237L450.212 94.986C451.532 95.2165 452.156 94.266 451.461 93.085L448.642 87.2951C447.947 86.114 446.435 85.0553 445.367 85.0012L439.115 84.439C437.891 84.6225 437.423 85.3354 437.867 86.34ZM425.363 85.2155L428.181 91.0054C428.877 92.1864 430.389 93.2451 431.457 93.2992L437.96 94.0379C439.28 94.2685 439.905 93.318 439.209 92.1369L436.391 86.347C435.695 85.166 434.183 84.1073 433.115 84.0532L426.864 83.4909C425.292 83.0839 424.667 84.0344 425.363 85.2155ZM412.763 83.6769L415.582 89.4668C416.277 90.6479 417.789 91.7066 418.857 91.7607L425.109 92.3229C426.429 92.5535 427.053 91.603 426.357 90.4219L423.539 84.632C422.844 83.451 421.332 82.3923 420.264 82.3382L414.012 81.7759C412.692 81.5454 412.068 82.4959 412.763 83.6769ZM400.164 82.1384L402.982 87.9283C403.678 89.1093 405.189 90.168 406.257 90.2221L412.509 90.7844C413.829 91.0149 414.454 90.0644 413.758 88.8834L410.94 83.0935C410.244 81.9124 408.732 80.8537 407.664 80.7996L401.413 80.2374C399.937 80.2445 399.468 80.9573 400.164 82.1384ZM432.17 75.4118L434.988 81.2017C435.684 82.3828 437.196 83.4415 438.264 83.4956L444.515 84.0578C445.835 84.2884 446.46 83.3379 445.764 82.1568L442.946 76.3669C442.25 75.1859 440.738 74.1272 439.67 74.0731L433.419 73.5108C431.943 73.5179 431.474 74.2308 432.17 75.4118ZM419.571 73.8733L422.389 79.6632C423.084 80.8442 424.596 81.9029 425.664 81.957L431.916 82.5193C433.236 82.7498 433.86 81.7993 433.164 80.6183L430.346 74.8284C429.651 73.6473 428.139 72.5886 427.071 72.5345L420.819 71.9723C419.595 72.1558 419.127 72.8687 419.571 73.8733ZM407.223 72.5112L410.041 78.3011C410.737 79.4821 412.248 80.5408 413.316 80.5949L419.568 81.1571C420.888 81.3877 421.512 80.4372 420.817 79.2562L417.999 73.4663C417.303 72.2852 415.791 71.2265 414.723 71.1724L408.472 70.6102C406.996 70.6172 406.527 71.3301 407.223 72.5112ZM394.467 71.2102L397.286 77.0001C397.981 78.1812 399.493 79.2399 400.561 79.294L406.813 79.8562C408.133 80.0868 408.757 79.1363 408.061 77.9552L405.243 72.1653C404.547 70.9843 403.036 69.9256 401.968 69.8715L395.716 69.3092C394.396 69.0787 393.772 70.0292 394.467 71.2102ZM385.533 90.9728L388.507 96.5251C389.203 97.7061 390.715 98.7648 391.783 98.8189L398.035 99.3812C399.355 99.6117 399.979 98.6612 399.283 97.4802L396.465 91.6903C395.769 90.5092 394.258 89.4505 393.19 89.3964L386.938 88.8342C385.462 88.8413 384.838 89.7917 385.533 90.9728ZM372.934 89.4342L375.752 95.2242C376.448 96.4052 377.959 97.4639 379.027 97.518L385.279 98.0802C386.599 98.3108 387.223 97.3603 386.528 96.1793L383.709 90.3893C383.014 89.2083 381.502 88.1496 380.434 88.0955L374.182 87.5333C372.862 87.3027 372.238 88.2532 372.934 89.4342ZM360.334 87.8957L363.152 93.6856C363.848 94.8666 365.36 95.9253 366.428 95.9794L372.679 96.5417C373.999 96.7722 374.624 95.8217 373.928 94.6407L371.206 89.2649C370.51 88.0838 368.998 87.0251 367.93 86.971L361.679 86.4088C360.359 86.1782 359.89 86.8911 360.334 87.8957ZM347.735 86.3571L350.805 92.3235C351.5 93.5045 353.012 94.5632 354.08 94.6173L360.332 95.1796C361.652 95.4101 362.276 94.4596 361.58 93.2786L358.762 87.4887C358.067 86.3076 356.555 85.2489 355.487 85.1948L349.235 84.6326C347.759 84.6397 347.291 85.3525 347.735 86.3571ZM379.741 79.6306L382.559 85.4205C383.255 86.6015 384.766 87.6602 385.834 87.7143L392.086 88.2766C393.406 88.5071 394.03 87.5566 393.335 86.3756L390.516 80.5857C389.821 79.4046 388.309 78.3459 387.241 78.2918L380.989 77.7296C379.765 77.9131 379.297 78.626 379.741 79.6306ZM367.237 78.5061L370.055 84.296C370.751 85.477 372.263 86.5357 373.331 86.5898L379.834 87.3285C381.154 87.5591 381.779 86.6086 381.083 85.4276L378.265 79.6376C377.569 78.4566 376.057 77.3979 374.989 77.3438L368.738 76.7816C367.166 76.3746 366.541 77.325 367.237 78.5061ZM354.638 76.9675L357.456 82.7574C358.151 83.9385 359.663 84.9972 360.731 85.0513L366.983 85.6135C368.303 85.8441 368.927 84.8936 368.231 83.7125L365.413 77.9226C364.718 76.7416 363.206 75.6829 362.138 75.6288L355.886 75.0666C354.566 74.836 353.942 75.7865 354.638 76.9675ZM342.038 75.429L344.856 81.2189C345.552 82.3999 347.063 83.4586 348.131 83.5127L354.383 84.075C355.703 84.3055 356.328 83.355 355.632 82.174L352.814 76.3841C352.118 75.203 350.606 74.1443 349.538 74.0902L343.287 73.528C342.063 73.7115 341.594 74.4244 342.038 75.429ZM374.044 68.7024L376.862 74.4923C377.558 75.6734 379.07 76.7321 380.138 76.7862L386.389 77.3484C387.709 77.579 388.334 76.6285 387.638 75.4474L384.82 69.6575C384.124 68.4765 382.613 67.4178 381.545 67.3637L375.293 66.8014C373.973 66.5709 373.348 67.5214 374.044 68.7024ZM361.445 67.1639L364.263 72.9538C364.958 74.1348 366.47 75.1935 367.538 75.2476L373.79 75.8099C375.11 76.0404 375.734 75.0899 375.038 73.9089L372.22 68.119C371.525 66.9379 370.013 65.8792 368.945 65.8251L362.693 65.2629C361.469 65.4464 361.001 66.1593 361.445 67.1639ZM349.097 65.8018L351.915 71.5917C352.611 72.7727 354.122 73.8314 355.19 73.8855L361.442 74.4477C362.762 74.6783 363.387 73.7278 362.691 72.5468L359.873 66.7569C359.177 65.5758 357.665 64.5171 356.597 64.463L350.346 63.9008C348.87 63.9079 348.401 64.6207 349.097 65.8018ZM336.341 64.5008L339.16 70.2907C339.855 71.4718 341.367 72.5305 342.435 72.5846L348.687 73.1468C350.007 73.3774 350.631 72.4269 349.935 71.2458L347.117 65.4559C346.421 64.2749 344.91 63.2162 343.842 63.1621L337.59 62.5998C336.27 62.3693 335.646 63.3198 336.341 64.5008Z" fill="url(#paint14_linear_66_276)"/>
<path d="M387.485 65.6217C386.825 65.5064 386.009 65.6288 385.097 65.337L410.007 113.66L413.871 113.938L389.213 65.7911C388.397 65.9134 388.145 65.737 387.485 65.6217Z" fill="#1C4296"/>
<path opacity="0.8" d="M363.153 93.6591L361.471 90.0472C362.254 88.8576 363.036 87.668 363.975 86.2405L367.848 86.5215C369.171 86.7535 370.686 87.8152 371.13 88.8219L373.954 94.6242C374.651 95.8078 374.025 96.7595 372.702 96.5275L366.436 95.9595C365.113 95.7275 363.598 94.6658 363.153 93.6591ZM366.994 85.5758C368.317 85.8078 368.943 84.8561 368.246 83.6724L366.852 81.3051C366.07 82.4947 365.131 83.9222 364.348 85.1118L366.994 85.5758ZM385.334 90.7818L388.314 96.3461C389.879 93.9669 391.287 91.8256 392.852 89.4464L386.742 88.6405C385.263 88.6464 384.637 89.5981 385.334 90.7818ZM374.516 76.9437L370.138 76.3088C369.356 77.4984 368.73 78.4501 367.947 79.6397L370.135 83.6055C370.832 84.7892 372.347 85.8509 373.417 85.9059L379.623 87.1267C380.946 87.3587 381.572 86.407 380.875 85.2234L378.051 79.4211C377.354 78.2374 375.839 77.1757 374.516 76.9437ZM386.582 96.1751L383.759 90.3728C383.062 89.1892 381.547 88.1275 380.476 88.0725L374.21 87.5044C372.887 87.2724 372.261 88.2241 372.958 89.4078L375.782 95.2101C376.479 96.3937 377.994 97.4554 379.064 97.5104L385.33 98.0785C386.653 98.3104 387.279 97.3588 386.582 96.1751ZM393.25 86.5973L390.427 80.7951C389.73 79.6114 388.215 78.5497 387.144 78.4947L380.878 77.9266C379.555 77.6947 378.929 78.6463 379.626 79.83L382.45 85.6323C383.147 86.8159 384.662 87.8777 385.732 87.9327L391.999 88.5007C393.478 88.4948 393.947 87.781 393.25 86.5973ZM365.881 99.0465L368.705 104.849C369.402 106.032 370.917 107.094 371.987 107.149L378.253 107.717C379.576 107.949 380.202 106.998 379.505 105.814L376.681 100.012C375.984 98.8279 374.469 97.7662 373.399 97.7112L367.133 97.1432C365.81 96.9112 365.34 97.6249 365.881 99.0465ZM432.082 75.2292L434.905 81.0315C435.602 82.2152 437.117 83.2769 438.188 83.3319L444.045 83.9609C444.514 83.2471 444.984 82.5334 445.453 81.8196L442.726 76.4322C442.029 75.2486 440.514 74.1868 439.443 74.1318L433.177 73.5638C431.854 73.3318 431.385 74.0456 432.082 75.2292ZM436.058 86.01C435.361 84.8263 433.846 83.7646 432.775 83.7096L426.509 83.1416C425.186 82.9096 424.56 83.8613 425.257 85.0449L428.081 90.8472C428.778 92.0309 430.293 93.0926 431.363 93.1476L437.882 93.8926C438.195 93.4167 438.664 92.703 438.977 92.2271L436.058 86.01ZM425.388 111.206L422.565 105.403C421.868 104.22 420.353 103.158 419.282 103.103L413.016 102.535C413.016 102.535 413.016 102.535 412.764 102.358L411.668 104.024C411.668 104.024 411.668 104.024 411.921 104.2L414.744 110.003C415.441 111.186 416.956 112.248 418.027 112.303L424.293 112.871C425.207 113.164 425.833 112.212 425.388 111.206ZM350.596 69.5652L351.642 71.3407C351.99 71.9325 352.844 72.8783 353.758 73.1712C355.323 70.792 357.044 68.1749 358.609 65.7957C357.851 65.2648 357.094 64.734 356.18 64.441L354.039 64.331C352.944 65.9964 351.848 67.6619 350.596 69.5652ZM432.217 94.0933C430.894 93.8613 430.268 94.813 430.965 95.9967L433.344 100.792C434.596 98.8889 435.848 96.9855 437.256 94.8443L432.217 94.0933ZM418.336 94.4457L421.16 100.248C421.857 101.432 423.372 102.493 424.443 102.548L430.709 103.116C430.961 103.293 431.118 103.055 431.37 103.232C431.683 102.757 431.84 102.519 432.153 102.043C432.153 102.043 432.057 101.628 431.804 101.451L428.98 95.6487C428.283 94.4651 426.768 93.4033 425.698 93.3483L419.432 92.7803C419.023 92.8413 418.77 92.6643 418.614 92.9022L417.988 93.8539C418.24 94.0309 418.084 94.2688 418.336 94.4457ZM352.037 75.7883C351.436 75.0196 350.173 74.1348 349.355 74.2567L347.78 73.8478C346.528 75.7512 345.276 77.6545 344.024 79.5579L344.565 80.9795C345.009 81.9862 346.019 82.694 346.933 82.9869C348.907 80.5467 350.472 78.1675 352.037 75.7883ZM419.553 91.4747L425.41 92.1037C426.733 92.3357 427.359 91.384 426.662 90.2004L423.934 84.8129L419.553 91.4747ZM452.249 105.699L455.965 106.218C457.288 106.45 457.914 105.499 457.217 104.315L455.379 100.941C454.283 102.606 453.345 104.034 452.249 105.699ZM401.811 69.6559L395.544 69.0879C394.221 68.8559 393.596 69.8076 394.293 70.9913L397.116 76.7936C397.717 77.5623 398.727 78.2701 399.894 78.74C401.458 76.3608 403.18 73.7437 404.745 71.3645C403.891 70.4188 402.725 69.9489 401.811 69.6559ZM437.789 86.181L440.073 90.5617C441.324 88.6583 442.42 86.9929 443.672 85.0895L439.137 84.6925C437.814 84.4605 437.345 85.1743 437.789 86.181ZM425.812 81.9579L431.922 82.7639C433.245 82.9958 433.87 82.0442 433.173 80.8605L430.193 75.2961L425.812 81.9579ZM348.658 73.0731C349.981 73.305 350.607 72.3534 349.91 71.1697L349.657 70.9928C349.345 71.4686 348.875 72.1824 348.658 73.0731ZM373.819 75.7601C375.142 75.9921 375.768 75.0404 375.071 73.8567L373.581 71.0745C372.642 72.5021 371.703 73.9296 370.764 75.3571L373.819 75.7601ZM374.52 69.647L376.803 74.0277C377.5 75.2114 379.015 76.2731 380.085 76.3281L386.351 76.8962C387.674 77.1281 388.3 76.1764 387.603 74.9928L384.779 69.1905C384.082 68.0069 382.568 66.9452 381.497 66.8901L376.71 66.3161C375.771 67.7437 375.146 68.6953 374.52 69.647ZM419.428 100.077L417.049 95.2814L413.137 101.229L418.333 101.742C419.656 101.974 420.125 101.261 419.428 100.077ZM386.28 99.4391L386.027 99.2621L379.509 98.5171C378.186 98.2852 377.56 99.2369 378.257 100.421L381.081 106.223L381.333 106.4C383.15 104.197 384.715 101.818 386.28 99.4391ZM361.169 93.3111L360.28 91.2978C359.498 92.4874 358.715 93.677 357.933 94.8666L360.074 94.9766C361.397 95.2086 361.866 94.4948 361.169 93.3111ZM359.515 105.36L365.781 105.928C367.104 106.16 367.73 105.209 367.033 104.025L364.21 98.2227C363.513 97.0391 361.998 95.9773 360.927 95.9223L357.463 95.5803C356.524 97.0078 355.586 98.4354 354.803 99.625L356.389 102.822C356.773 104.482 358.288 105.543 359.515 105.36ZM463.021 115.682L460.197 109.879C459.5 108.696 457.985 107.634 456.915 107.579L451.719 107.066C451.093 108.018 450.467 108.969 449.842 109.921L452.221 114.717C452.918 115.9 454.433 116.962 455.503 117.017L461.769 117.585C463.249 117.579 463.718 116.865 463.021 115.682ZM430.84 104.599L425.392 103.909C424.069 103.677 423.443 104.629 424.14 105.812L426.772 110.785C428.18 108.644 429.588 106.502 430.84 104.599ZM450.393 114.131L448.807 110.934C447.868 112.361 446.772 114.027 445.834 115.454L449.297 115.796C450.62 116.028 451.09 115.314 450.393 114.131Z" fill="url(#paint15_linear_66_276)"/>
<path d="M468.131 117.521L470.345 114.683C470.839 115.722 470.786 116.392 470.459 116.878L468.118 119.955C468.445 119.469 468.351 118.376 468.131 117.521Z" fill="#4074E4"/>
<path d="M334.617 59.5487L336.522 56.6721C335.425 56.5128 334.162 56.5364 333.842 57.0269L331.764 60.1028C332.084 59.6123 333.778 59.6059 334.617 59.5487Z" fill="#4074E4"/>
<path d="M459.5 92.165L474.663 76.1093C476.319 73.9316 479.652 73.0451 483.471 73.5186C491.589 74.6691 500.1 81.4646 502.651 88.6043C503.987 92.3441 503.41 95.2691 501.754 97.4468L486.591 113.502L486.827 113.026C485.171 115.204 481.959 116.43 477.661 115.753C469.544 114.603 461.033 107.807 458.361 100.328C457.267 97.2676 457.723 94.0026 459.5 92.165ZM487.609 105C487.731 105.34 487.974 106.02 488.095 106.36C487.852 105.68 487.731 105.34 487.609 105Z" fill="url(#paint16_linear_66_276)"/>
<path d="M463.241 78.4905C465.334 76.1745 468.967 74.7747 473.753 75.5743C483.212 76.8393 500.107 90.4332 502.926 98.7863C504.279 102.796 503.84 106.363 501.748 108.679L468.639 142.863C470.732 140.547 471.17 136.981 469.817 132.971C466.998 124.618 454.911 116.1 445.452 114.835C440.779 114.369 436.575 116.13 434.482 118.446L463.241 78.4905Z" fill="url(#paint17_linear_66_276)"/>
<path d="M447.424 113.431C437.102 112.156 431.656 118.74 434.54 127.371C437.544 136.362 447.918 144.524 458.24 145.798C468.561 147.073 474.008 140.489 471.123 131.858C467.999 122.507 457.227 114.5 447.424 113.431Z" fill="#2B55B2"/>
<path d="M410.29 152.948L438.299 121.335C440.008 119.162 443.373 118.243 447.196 118.66C455.318 119.69 463.713 126.289 466.119 133.307C467.379 136.983 466.736 139.879 465.028 142.052L437.019 173.665L437.265 173.192C435.557 175.364 432.306 176.618 428.007 176.006C419.885 174.976 411.49 168.377 408.97 161.025C407.939 158.017 408.467 154.787 410.29 152.948ZM438.225 165.254C438.339 165.589 438.568 166.257 438.683 166.591C438.454 165.923 438.339 165.589 438.225 165.254Z" fill="url(#paint18_linear_66_276)"/>
<path d="M431.612 122.869C433.743 120.586 437.398 119.244 442.17 120.121C451.607 121.538 462.62 131.129 465.301 139.529C466.588 143.562 466.09 147.122 463.96 149.406L432.527 183.661C434.657 181.378 435.154 177.817 433.868 173.785C431.187 165.384 423.494 157.846 414.058 156.429C409.393 155.888 405.63 156.894 403.5 159.177L431.612 122.869Z" fill="url(#paint19_linear_66_276)"/>
<path d="M414.561 155.999C405.224 154.782 400.152 160.628 402.596 168.366C405.142 176.428 414.389 183.802 423.726 185.02C433.063 186.237 438.135 180.391 435.691 172.653C433.145 164.591 423.533 157.352 414.561 155.999Z" fill="#2B55B2"/>
<path d="M410.761 165.547C411.712 164.338 413.451 163.521 415.831 163.737C420.525 164.009 425.226 167.656 426.893 171.637C427.693 173.547 427.597 175.307 426.646 176.516L410.483 195.958C411.434 194.749 409.95 193.812 409.15 191.901C407.484 187.921 402.526 184.534 397.833 184.262C395.519 184.206 394.7 184.843 393.75 186.051L410.761 165.547Z" fill="url(#paint20_linear_66_276)"/>
<path d="M399.578 183.22C394.785 182.967 393.294 185.478 394.911 189.346C396.596 193.374 401.644 196.785 406.437 197.038C411.23 197.291 412.721 194.78 411.103 190.913C409.419 186.884 404.192 183.557 399.578 183.22Z" fill="#1F469E"/>
<path d="M399.578 183.22C394.785 182.967 393.294 185.478 394.911 189.346C396.596 193.374 401.644 196.785 406.437 197.038C411.23 197.291 412.721 194.78 411.103 190.913C409.419 186.884 404.192 183.557 399.578 183.22Z" fill="url(#paint21_linear_66_276)"/>
<path fill-rule="evenodd" clip-rule="evenodd" d="M397.901 181.074C398.212 178.331 400.558 177.005 404.855 177.864C409.931 178.977 414.902 183.184 415.724 187.497C416.234 190.176 415.439 192.068 413.38 192.784C414.296 191.724 414.308 190.072 413.444 188.036C411.747 184.034 406.509 180.695 401.891 180.322C400.105 180.213 398.778 180.488 397.901 181.074Z" fill="#1F469E"/>
<path fill-rule="evenodd" clip-rule="evenodd" d="M418.678 139.793C419.324 134.108 424.191 131.354 433.104 133.125C443.628 135.419 453.93 144.124 455.629 153.058C456.684 158.606 455.031 162.528 450.758 164.015C452.664 161.818 452.691 158.392 450.899 154.17C447.383 145.883 436.526 138.981 426.954 138.221C423.249 138.001 420.498 138.575 418.678 139.793Z" fill="#1F469E"/>
<path fill-rule="evenodd" clip-rule="evenodd" d="M448.239 98.9188C448.437 91.6985 454.048 88.1429 464.856 90.3792C476.995 93.1236 488.938 103.227 490.977 113.502C492.267 119.999 490.309 124.53 485.203 126.118C486.283 123.67 485.954 120.351 484.256 116.425C480.128 106.878 467.559 98.8438 456.528 97.8711C453.026 97.6318 450.268 98.0127 448.239 98.9188Z" fill="#1F469E"/>
<path d="M416.516 188.36C416.845 187.277 416.691 186.003 416.054 184.538C415.114 182.525 413.421 180.714 411.337 179.247C409.284 177.864 406.779 176.945 404.457 176.812C402.136 176.679 400.449 177.44 399.518 178.57L399.879 178.142C400.78 176.928 402.496 176.251 404.818 176.384C407.14 176.517 409.523 177.388 411.698 178.819C413.751 180.202 415.565 182.061 416.415 184.109C417.021 185.491 417.206 186.849 416.877 187.932C416.727 188.372 416.487 188.848 416.217 189.241L415.857 189.669C416.127 189.277 416.397 188.884 416.516 188.36Z" fill="#1C4296"/>
<path d="M420.044 183.958C420.374 182.877 420.221 181.606 419.585 180.145C418.647 178.137 416.957 176.332 414.875 174.871C412.823 173.493 410.32 172.578 407.999 172.448C405.678 172.317 403.992 173.078 403.06 174.206L403.421 173.779C404.323 172.567 406.039 171.89 408.36 172.02C410.681 172.151 413.063 173.018 415.235 174.443C417.287 175.821 419.099 177.674 419.946 179.717C420.551 181.095 420.735 182.449 420.405 183.53C420.255 183.97 420.015 184.445 419.744 184.837L419.384 185.264C419.654 184.872 419.925 184.48 420.044 183.958Z" fill="#1C4296"/>
<path d="M415.398 189.711C415.727 188.629 415.573 187.356 414.937 185.894C413.999 183.884 412.307 182.076 410.224 180.613C408.171 179.233 405.668 178.316 403.347 178.185C401.025 178.053 399.339 178.813 398.407 179.943L398.768 179.515C399.67 178.302 401.386 177.625 403.707 177.757C406.028 177.888 408.411 178.757 410.585 180.185C412.637 181.565 414.45 183.42 415.298 185.466C415.904 186.845 416.088 188.201 415.758 189.283C415.609 189.722 415.368 190.198 415.098 190.59L414.737 191.018C415.008 190.626 415.278 190.234 415.398 189.711Z" fill="#1C4296"/>
<path d="M418.938 185.342C419.266 184.257 419.111 182.98 418.472 181.511C417.531 179.493 415.836 177.676 413.75 176.205C411.694 174.817 409.188 173.894 406.866 173.758C404.543 173.623 402.857 174.384 401.926 175.516L402.287 175.087C403.187 173.871 404.904 173.194 407.226 173.329C409.549 173.465 411.934 174.34 414.11 175.776C416.166 177.164 417.981 179.028 418.833 181.082C419.441 182.468 419.626 183.828 419.298 184.914C419.149 185.355 418.91 185.832 418.64 186.225L418.279 186.654C418.549 186.261 418.819 185.867 418.938 185.342Z" fill="#1C4296"/>
<path d="M422.579 180.893C422.907 179.806 422.751 178.527 422.112 177.056C421.168 175.034 419.472 173.213 417.385 171.738C415.328 170.347 412.821 169.421 410.498 169.284C408.175 169.147 406.489 169.908 405.558 171.041L405.918 170.611C406.818 169.395 408.535 168.717 410.858 168.854C413.181 168.991 415.568 169.869 417.745 171.309C419.802 172.7 421.619 174.569 422.472 176.626C423.081 178.014 423.267 179.377 422.94 180.464C422.791 180.906 422.551 181.383 422.281 181.777L421.921 182.206C422.191 181.813 422.461 181.419 422.579 180.893Z" fill="#1C4296"/>
<path d="M414.261 191.012C414.59 189.928 414.435 188.654 413.798 187.188C412.858 185.174 411.165 183.362 409.08 181.895C407.026 180.511 404.522 179.591 402.2 179.458C399.878 179.324 398.192 180.085 397.26 181.216L397.621 180.787C398.522 179.573 400.239 178.896 402.56 179.029C404.882 179.163 407.266 180.035 409.441 181.466C411.495 182.85 413.309 184.71 414.159 186.759C414.766 188.142 414.95 189.5 414.622 190.583C414.472 191.024 414.232 191.5 413.962 191.893L413.601 192.321C413.872 191.928 414.142 191.536 414.261 191.012Z" fill="#1C4296"/>
<path d="M417.839 186.747C418.167 185.662 418.012 184.385 417.374 182.917C416.432 180.899 414.737 179.082 412.651 177.611C410.596 176.224 408.09 175.301 405.768 175.166C403.445 175.031 401.759 175.791 400.828 176.923L401.189 176.494C402.089 175.279 403.806 174.602 406.128 174.737C408.451 174.872 410.836 175.747 413.012 177.182C415.067 178.57 416.883 180.434 417.734 182.488C418.342 183.873 418.527 185.233 418.199 186.318C418.05 186.759 417.81 187.236 417.54 187.629L417.18 188.058C417.45 187.665 417.72 187.272 417.839 186.747Z" fill="#1C4296"/>
<path d="M421.272 182.548C421.6 181.462 421.444 180.184 420.805 178.713C419.862 176.693 418.167 174.874 416.08 173.4C414.024 172.011 411.517 171.086 409.194 170.949C406.871 170.813 405.185 171.574 404.255 172.707L404.615 172.277C405.515 171.061 407.232 170.384 409.555 170.52C411.877 170.656 414.263 171.533 416.44 172.971C418.496 174.361 420.313 176.228 421.165 178.284C421.774 179.671 421.96 181.033 421.632 182.119C421.483 182.561 421.244 183.038 420.974 183.432L420.613 183.861C420.883 183.467 421.153 183.074 421.272 182.548Z" fill="#1C4296"/>
<defs>
<filter id="filter0_b_66_276" x="104.292" y="251.409" width="282.499" height="227.148" filterUnits="userSpaceOnUse" color-interpolation-filters="sRGB">
<feFlood flood-opacity="0" result="BackgroundImageFix"/>
<feGaussianBlur in="BackgroundImage" stdDeviation="25"/>
<feComposite in2="SourceAlpha" operator="in" result="effect1_backgroundBlur_66_276"/>
<feBlend mode="normal" in="SourceGraphic" in2="effect1_backgroundBlur_66_276" result="shape"/>
</filter>
<filter id="filter1_b_66_276" x="223.937" y="148.135" width="222.428" height="330.422" filterUnits="userSpaceOnUse" color-interpolation-filters="sRGB">
<feFlood flood-opacity="0" result="BackgroundImageFix"/>
<feGaussianBlur in="BackgroundImage" stdDeviation="25"/>
<feComposite in2="SourceAlpha" operator="in" result="effect1_backgroundBlur_66_276"/>
<feBlend mode="normal" in="SourceGraphic" in2="effect1_backgroundBlur_66_276" result="shape"/>
</filter>
<filter id="filter2_b_66_276" x="104.583" y="150.585" width="340.221" height="263.419" filterUnits="userSpaceOnUse" color-interpolation-filters="sRGB">
<feFlood flood-opacity="0" result="BackgroundImageFix"/>
<feGaussianBlur in="BackgroundImage" stdDeviation="25"/>
<feComposite in2="SourceAlpha" operator="in" result="effect1_backgroundBlur_66_276"/>
<feBlend mode="normal" in="SourceGraphic" in2="effect1_backgroundBlur_66_276" result="shape"/>
</filter>
<filter id="filter3_b_66_276" x="105.023" y="150.159" width="340.318" height="329.187" filterUnits="userSpaceOnUse" color-interpolation-filters="sRGB">
<feFlood flood-opacity="0" result="BackgroundImageFix"/>
<feGaussianBlur in="BackgroundImage" stdDeviation="25"/>
<feComposite in2="SourceAlpha" operator="in" result="effect1_backgroundBlur_66_276"/>
<feBlend mode="normal" in="SourceGraphic" in2="effect1_backgroundBlur_66_276" result="shape"/>
</filter>
<radialGradient id="paint0_radial_66_276" cx="0" cy="0" r="1" gradientUnits="userSpaceOnUse" gradientTransform="translate(188.841 425.45) rotate(-1.37827) scale(208.532 204.39)">
<stop stop-color="#1A3D8A"/>
<stop offset="0.203125" stop-color="#3567D2"/>
<stop offset="0.232336" stop-color="#4479EB"/>
<stop offset="0.520833" stop-color="#2C55B1"/>
<stop offset="0.671875" stop-color="#264EA8"/>
<stop offset="0.723958" stop-color="#254DA6"/>
<stop offset="0.859375" stop-color="#1A3D8A"/>
<stop offset="0.998389" stop-color="#3567D2"/>
</radialGradient>
<radialGradient id="paint1_radial_66_276" cx="0" cy="0" r="1" gradientUnits="userSpaceOnUse" gradientTransform="translate(240.464 353.705) rotate(80.6374) scale(63.8037 65.0726)">
<stop stop-color="white"/>
<stop offset="1" stop-color="white" stop-opacity="0"/>
</radialGradient>
<radialGradient id="paint2_radial_66_276" cx="0" cy="0" r="1" gradientUnits="userSpaceOnUse" gradientTransform="translate(178.7 408.633) scale(215.253 210.972)">
<stop stop-color="#17CDA6"/>
<stop offset="0.494792" stop-color="#46DEBD"/>
<stop offset="0.9999" stop-color="#54FBD7"/>
<stop offset="1" stop-color="white"/>
</radialGradient>
<radialGradient id="paint3_radial_66_276" cx="0" cy="0" r="1" gradientUnits="userSpaceOnUse" gradientTransform="translate(244.203 313.72) rotate(24.5287) scale(254.474 230.329)">
<stop/>
<stop offset="0.1042" stop-color="#272727"/>
<stop offset="0.2914" stop-color="#686868"/>
<stop offset="0.47" stop-color="#9E9E9E"/>
<stop offset="0.6349" stop-color="#C8C8C8"/>
<stop offset="0.7833" stop-color="#E6E6E6"/>
<stop offset="0.91" stop-color="#F8F8F8"/>
<stop offset="1" stop-color="white"/>
</radialGradient>
<linearGradient id="paint4_linear_66_276" x1="149.536" y1="272.281" x2="149.536" y2="623.353" gradientUnits="userSpaceOnUse">
<stop stop-color="white"/>
<stop offset="1" stop-color="white" stop-opacity="0.3"/>
</linearGradient>
<linearGradient id="paint5_linear_66_276" x1="369" y1="462.5" x2="-36.5" y2="475" gradientUnits="userSpaceOnUse">
<stop stop-color="white"/>
<stop offset="1" stop-color="white" stop-opacity="0.3"/>
</linearGradient>
<linearGradient id="paint6_linear_66_276" x1="230.004" y1="246.758" x2="230.004" y2="647.36" gradientUnits="userSpaceOnUse">
<stop stop-color="white"/>
<stop offset="1" stop-color="white" stop-opacity="0.3"/>
</linearGradient>
<linearGradient id="paint7_linear_66_276" x1="316.5" y1="289.5" x2="-56.5" y2="516.5" gradientUnits="userSpaceOnUse">
<stop stop-color="white"/>
<stop offset="0.100297" stop-color="white" stop-opacity="0.936108"/>
<stop offset="1" stop-color="white" stop-opacity="0.3"/>
</linearGradient>
<linearGradient id="paint8_linear_66_276" x1="406.907" y1="203.865" x2="282.308" y2="433.106" gradientUnits="userSpaceOnUse">
<stop stop-color="white" stop-opacity="0"/>
<stop offset="0.630208" stop-color="white"/>
</linearGradient>
<linearGradient id="paint9_linear_66_276" x1="440.247" y1="152.685" x2="225.76" y2="403.351" gradientUnits="userSpaceOnUse">
<stop stop-color="white" stop-opacity="0"/>
<stop offset="0.70446" stop-color="white"/>
</linearGradient>
<linearGradient id="paint10_linear_66_276" x1="503.9" y1="102.14" x2="503.538" y2="105.867" gradientUnits="userSpaceOnUse">
<stop stop-color="#2B55B2"/>
<stop offset="1" stop-color="#1C4296"/>
</linearGradient>
<linearGradient id="paint11_linear_66_276" x1="452.9" y1="91.1404" x2="452.538" y2="94.8667" gradientUnits="userSpaceOnUse">
<stop stop-color="#2B55B2"/>
<stop offset="1" stop-color="#1C4296"/>
</linearGradient>
<linearGradient id="paint12_linear_66_276" x1="613.449" y1="147.715" x2="514.613" y2="74.8776" gradientUnits="userSpaceOnUse">
<stop stop-color="#7AA4FF"/>
<stop offset="1" stop-color="#2958C1"/>
</linearGradient>
<linearGradient id="paint13_linear_66_276" x1="616.614" y1="137.13" x2="473.619" y2="64.6715" gradientUnits="userSpaceOnUse">
<stop stop-color="#2B55B2"/>
<stop offset="1" stop-color="#152F68"/>
</linearGradient>
<linearGradient id="paint14_linear_66_276" x1="455.338" y1="128.973" x2="341.878" y2="54.4502" gradientUnits="userSpaceOnUse">
<stop stop-color="#7AA4FF"/>
<stop offset="1" stop-color="#2958C1"/>
</linearGradient>
<linearGradient id="paint15_linear_66_276" x1="457.594" y1="118.014" x2="294.916" y2="49.7299" gradientUnits="userSpaceOnUse">
<stop stop-color="#2B55B2"/>
<stop offset="1" stop-color="#152F68"/>
</linearGradient>
<linearGradient id="paint16_linear_66_276" x1="460.208" y1="93.5657" x2="486.528" y2="116.261" gradientUnits="userSpaceOnUse">
<stop stop-color="#1C4296"/>
<stop offset="0.6756" stop-color="#2D5ABF"/>
<stop offset="1" stop-color="#1C4296"/>
</linearGradient>
<linearGradient id="paint17_linear_66_276" x1="455.305" y1="94.6901" x2="484.606" y2="120.944" gradientUnits="userSpaceOnUse">
<stop stop-color="#4074E4"/>
<stop offset="0.6806" stop-color="#234DAB"/>
<stop offset="1" stop-color="#4074E4"/>
</linearGradient>
<linearGradient id="paint18_linear_66_276" x1="424.173" y1="137.066" x2="449.625" y2="159.666" gradientUnits="userSpaceOnUse">
<stop stop-color="#1C4296"/>
<stop offset="0.6756" stop-color="#2D5ABF"/>
<stop offset="1" stop-color="#1C4296"/>
</linearGradient>
<linearGradient id="paint19_linear_66_276" x1="422.767" y1="135.912" x2="451.64" y2="162.63" gradientUnits="userSpaceOnUse">
<stop stop-color="#4074E4"/>
<stop offset="0.6806" stop-color="#234DAB"/>
<stop offset="1" stop-color="#4074E4"/>
</linearGradient>
<linearGradient id="paint20_linear_66_276" x1="399.731" y1="178.633" x2="414.94" y2="190.498" gradientUnits="userSpaceOnUse">
<stop stop-color="#4074E4"/>
<stop offset="0.6806" stop-color="#234DAB"/>
<stop offset="1" stop-color="#4074E4"/>
</linearGradient>
<linearGradient id="paint21_linear_66_276" x1="399.205" y1="182.33" x2="406.71" y2="198.287" gradientUnits="userSpaceOnUse">
<stop stop-color="#1D4398"/>
<stop offset="0.494792" stop-color="#5586F2"/>
<stop offset="1" stop-color="#1D4398"/>
</linearGradient>
</defs>
</svg>
