<svg width="211" height="70" viewBox="0 0 211 70" fill="none" xmlns="http://www.w3.org/2000/svg">
<path d="M25.9852 19.7361C26.9527 19.7361 27.737 18.9526 27.737 17.9861C27.737 17.0196 26.9527 16.2361 25.9852 16.2361C25.0177 16.2361 24.2334 17.0196 24.2334 17.9861C24.2334 18.9526 25.0177 19.7361 25.9852 19.7361Z" fill="url(#paint0_linear_66_396)"/>
<path d="M15.8636 35.1458C15.961 35.1458 16.1069 35.1458 16.2043 35.0972C16.2529 35.0972 16.3016 35.0486 16.3502 35.0486C16.3989 35.0486 16.4962 35 16.5449 35C16.5936 35 16.6422 34.9514 16.6909 34.9028C16.7395 34.9028 16.7882 34.8542 16.7882 34.8542C16.8369 34.8055 16.8855 34.7569 16.9828 34.7083L17.0315 34.6597C17.0802 34.6111 17.1775 34.5139 17.2261 34.4653C17.2261 34.4653 17.2261 34.4653 17.2748 34.4166C17.3235 34.3194 17.3721 34.2708 17.4208 34.1736C17.5181 33.9792 17.5668 33.7847 17.6154 33.5903C17.9561 29.118 19.9999 25.1319 23.0655 22.2639C23.5035 21.9236 23.7954 21.3889 23.7954 20.8055C23.7954 19.8333 23.0169 19.0555 22.0436 19.0555C21.6057 19.0555 21.2164 19.2014 20.9244 19.493C17.0802 22.9444 14.5498 27.8055 14.1118 33.2986C14.1118 33.3472 14.1118 33.3472 14.1118 33.3958C14.1118 34.3194 14.8904 35.1458 15.8636 35.1458Z" fill="url(#paint1_linear_66_396)"/>
<path d="M58.7343 44.6249C58.0531 44.6249 57.4691 45.0138 57.1772 45.5485H57.1285C53.1869 53.8124 44.7685 59.4999 34.9876 59.4999C21.4597 59.4999 10.4622 48.5138 10.4622 34.9999C10.4622 21.486 21.4597 10.4999 34.9876 10.4999C44.0872 10.4999 52.0677 15.4582 56.3013 22.8471C56.5932 23.4304 57.1772 23.7707 57.8584 23.7707C58.8317 23.7707 59.6102 22.9929 59.6102 22.0207C59.6102 21.6804 59.5129 21.3402 59.3183 21.0971L58.7343 20.1249C58.5397 19.8332 58.345 19.5415 58.1504 19.2013C53.0896 11.8124 44.6225 6.99988 34.9876 6.99988C19.5132 6.99988 6.95859 19.5415 6.95859 34.9999C6.95859 50.4582 19.5132 62.9999 34.9876 62.9999C45.8391 62.9999 55.2307 56.8263 59.9022 47.8332C59.9995 47.6874 60.0482 47.5415 60.1455 47.3957C60.1455 47.3471 60.1942 47.3471 60.1942 47.2985C60.1455 47.4443 60.1942 47.2985 60.2428 47.1526C60.2428 47.104 60.2915 47.0554 60.2915 47.0554C60.3402 46.9096 60.3888 46.8124 60.2915 47.0068C60.3402 46.8124 60.3888 46.6179 60.3888 46.4235C60.4861 45.4027 59.7076 44.6249 58.7343 44.6249Z" fill="url(#paint2_linear_66_396)"/>
<path d="M68.0774 46.375C68.0774 45.4028 67.2988 44.625 66.3255 44.625C65.6443 44.625 65.0603 45.0139 64.7684 45.5486L64.7197 45.6458C60.3402 57.7986 48.7101 66.4514 35.0362 66.4514C17.6154 66.4514 3.50362 52.3542 3.50362 34.9514C3.50362 17.5486 17.6641 3.5 35.0362 3.5C48.0288 3.5 59.1723 11.3264 63.9898 22.5556C64.1844 23.2847 64.8657 23.8194 65.6443 23.8194C66.6175 23.8194 67.3961 23.0417 67.3961 22.0694C67.3961 21.875 67.3474 21.6806 67.2988 21.4861C66.9581 20.5625 67.1528 21.0486 66.7635 20.1736C66.6175 19.9306 66.5202 19.6389 66.3742 19.3958C60.6808 7.875 48.8074 0 35.0362 0C15.669 0 0 15.6528 0 35C0 54.3472 15.669 70 35.0362 70C49.4887 70 61.8974 61.25 67.2501 48.7569C67.6881 47.7361 67.6394 48.0278 67.98 46.9583C68.0287 46.7639 68.0774 46.5694 68.0774 46.375Z" fill="url(#paint3_linear_66_396)"/>
<path d="M44 30V42H41.8V28H48.74V42H46.5V30H44ZM52.5552 31.22V38.78C52.5552 39.7 52.9352 40.16 53.6952 40.16C54.4552 40.16 54.8352 39.7 54.8352 38.78V31.22C54.8352 30.3 54.4552 29.84 53.6952 29.84C52.9352 29.84 52.5552 30.3 52.5552 31.22ZM50.3552 38.64V31.36C50.3552 30.24 50.6418 29.3733 51.2152 28.76C51.7885 28.1467 52.6152 27.84 53.6952 27.84C54.7752 27.84 55.6018 28.1467 56.1752 28.76C56.7485 29.3733 57.0352 30.24 57.0352 31.36V38.64C57.0352 39.76 56.7485 40.6267 56.1752 41.24C55.6018 41.8533 54.7752 42.16 53.6952 42.16C52.6152 42.16 51.7885 41.8533 51.2152 41.24C50.6418 40.6267 50.3552 39.76 50.3552 38.64ZM67.2048 43.88H65.0248V42H60.3248V43.88H58.1848V40.04H59.0448C59.3648 39.64 59.5448 39.0333 59.5848 38.22L60.0848 28H66.2448V40.04H67.2048V43.88ZM62.1448 30L61.7448 38.18C61.6915 39.0733 61.4848 39.6933 61.1248 40.04H64.0048V30H62.1448ZM67.9905 30V28H74.7905V30H72.4905V42H70.2905V30H67.9905ZM79.2794 28C80.4127 28 81.2394 28.2667 81.7594 28.8C82.2794 29.32 82.5394 30.1267 82.5394 31.22V31.72C82.5394 33.16 82.066 34.1 81.1194 34.54C82.2127 34.9667 82.7594 35.9667 82.7594 37.54V38.68C82.7594 39.76 82.4727 40.5867 81.8994 41.16C81.3394 41.72 80.5127 42 79.4194 42H75.9594V28H79.2794ZM79.1394 35.7H78.1594V40H79.4194C79.806 40 80.0927 39.9 80.2794 39.7C80.466 39.4867 80.5594 39.1267 80.5594 38.62V37.4C80.5594 36.76 80.446 36.32 80.2194 36.08C80.006 35.8267 79.646 35.7 79.1394 35.7ZM79.2194 30H78.1594V33.7H79.0194C79.4594 33.7 79.786 33.5867 79.9994 33.36C80.226 33.1333 80.3394 32.7533 80.3394 32.22V31.44C80.3394 30.48 79.966 30 79.2194 30ZM86.4844 30V33.9H89.5044V35.9H86.4844V40H90.2844V42H84.2844V28H90.2844V30H86.4844ZM95.0877 28C97.2743 28 98.3677 29.1533 98.3677 31.46V33.28C98.3677 35.5867 97.2743 36.74 95.0877 36.74H94.0477V42H91.8477V28H95.0877ZM95.0877 30H94.0477V34.74H95.0877C95.4477 34.74 95.7143 34.64 95.8877 34.44C96.0743 34.24 96.1677 33.9 96.1677 33.42V31.32C96.1677 30.84 96.0743 30.5 95.8877 30.3C95.7143 30.1 95.4477 30 95.0877 30ZM105.927 28V33.66L108.527 28H110.727L108.027 33.68L110.727 42H108.467L106.467 35.8L105.927 36.86V42H103.747V36.86L103.207 35.78L101.207 42H98.9467L101.667 33.74L98.9467 28H101.147L103.747 33.66V28H105.927ZM120.397 43.88H118.217V42H113.517V43.88H111.377V40.04H112.237C112.557 39.64 112.737 39.0333 112.777 38.22L113.277 28H119.437V40.04H120.397V43.88ZM115.337 30L114.937 38.18C114.884 39.0733 114.677 39.6933 114.317 40.04H117.197V30H115.337ZM124.023 30V33.9H127.043V35.9H124.023V40H127.823V42H121.823V28H127.823V30H124.023ZM131.586 36V42H129.386V28H131.586V34H134.086V28H136.326V42H134.086V36H131.586ZM142.221 35.58L140.381 42H138.121V28H140.081V36.86L140.881 33.78L142.681 28H145.101V42H143.121V32.14L142.221 35.58ZM149.056 30V33.9H152.076V35.9H149.056V40H152.856V42H146.856V28H152.856V30H149.056ZM164.965 28L162.605 38.44C162.325 39.8 161.878 40.76 161.265 41.32C160.652 41.88 159.618 42.1133 158.165 42.02V40.06C158.765 40.1 159.218 40.04 159.525 39.88C159.832 39.72 160.025 39.4 160.105 38.92L160.125 38.8L157.085 28H159.265L160.465 32.78L161.145 36.06L161.665 32.8L162.665 28H164.965ZM176.489 28V40.04H177.469V43.88H175.329V42H166.089V28H168.289V40H170.189V28H172.389V40H174.289V28H176.489ZM181.067 30V33.9H184.087V35.9H181.067V40H184.867V42H178.867V28H184.867V30H181.067ZM189.67 28C191.857 28 192.95 29.1533 192.95 31.46V33.28C192.95 35.5867 191.857 36.74 189.67 36.74H188.63V42H186.43V28H189.67ZM189.67 30H188.63V34.74H189.67C190.03 34.74 190.297 34.64 190.47 34.44C190.657 34.24 190.75 33.9 190.75 33.42V31.32C190.75 30.84 190.657 30.5 190.47 30.3C190.297 30.1 190.03 30 189.67 30ZM197.67 42H194.19V28H200.35V30H196.39V33.58H197.67C198.763 33.58 199.59 33.88 200.15 34.48C200.71 35.0667 200.99 35.92 200.99 37.04V38.54C200.99 39.66 200.71 40.52 200.15 41.12C199.59 41.7067 198.763 42 197.67 42ZM196.39 40H197.67C198.416 40 198.79 39.56 198.79 38.68V36.9C198.79 36.02 198.416 35.58 197.67 35.58H196.39V40ZM207.55 28L209.79 42H207.57L207.19 39.46H204.49L204.11 42H202.09L204.33 28H207.55ZM205.83 30.48L204.77 37.56H206.89L205.83 30.48Z" fill="#212121"/>
<defs>
<linearGradient id="paint0_linear_66_396" x1="-0.269339" y1="49.1386" x2="42.7466" y2="-2.03109" gradientUnits="userSpaceOnUse">
<stop stop-color="#00C095"/>
<stop offset="1" stop-color="#00FEE4"/>
</linearGradient>
<linearGradient id="paint1_linear_66_396" x1="-0.118591" y1="49.5948" x2="42.8974" y2="-1.5745" gradientUnits="userSpaceOnUse">
<stop stop-color="#00C095"/>
<stop offset="1" stop-color="#00FEE4"/>
</linearGradient>
<linearGradient id="paint2_linear_66_396" x1="13.2743" y1="60.8535" x2="56.2902" y2="9.68418" gradientUnits="userSpaceOnUse">
<stop stop-color="#00BF96"/>
<stop offset="1" stop-color="#00FEE4"/>
</linearGradient>
<linearGradient id="paint3_linear_66_396" x1="13.2752" y1="60.8544" x2="56.2912" y2="9.68507" gradientUnits="userSpaceOnUse">
<stop stop-color="#00BF96"/>
<stop offset="1" stop-color="#00FEE4"/>
</linearGradient>
</defs>
</svg>
