<svg width="179" height="70" viewBox="0 0 179 70" fill="none" xmlns="http://www.w3.org/2000/svg">
<path d="M25.9852 19.7362C26.9527 19.7362 27.737 18.9527 27.737 17.9862C27.737 17.0197 26.9527 16.2362 25.9852 16.2362C25.0177 16.2362 24.2334 17.0197 24.2334 17.9862C24.2334 18.9527 25.0177 19.7362 25.9852 19.7362Z" fill="url(#paint0_linear_66_388)"/>
<path d="M15.8636 35.146C15.9609 35.146 16.1069 35.146 16.2042 35.0974C16.2529 35.0974 16.3016 35.0488 16.3502 35.0488C16.3989 35.0488 16.4962 35.0002 16.5449 35.0002C16.5935 35.0002 16.6422 34.9516 16.6908 34.9029C16.7395 34.9029 16.7882 34.8543 16.7882 34.8543C16.8368 34.8057 16.8855 34.7571 16.9828 34.7085L17.0315 34.6599C17.0801 34.6113 17.1775 34.5141 17.2261 34.4654C17.2261 34.4654 17.2261 34.4654 17.2748 34.4168C17.3234 34.3196 17.3721 34.271 17.4208 34.1738C17.5181 33.9793 17.5667 33.7849 17.6154 33.5904C17.956 29.1182 19.9998 25.1321 23.0655 22.2641C23.5034 21.9238 23.7954 21.3891 23.7954 20.8057C23.7954 19.8335 23.0168 19.0557 22.0436 19.0557C21.6056 19.0557 21.2164 19.2016 20.9244 19.4932C17.0801 22.9446 14.5497 27.8057 14.1118 33.2988C14.1118 33.3474 14.1118 33.3474 14.1118 33.396C14.1118 34.3196 14.8904 35.146 15.8636 35.146Z" fill="url(#paint1_linear_66_388)"/>
<path d="M58.7343 44.625C58.0531 44.625 57.4691 45.0139 57.1772 45.5486H57.1285C53.1869 53.8125 44.7685 59.5 34.9876 59.5C21.4597 59.5 10.4622 48.5139 10.4622 35C10.4622 21.4861 21.4597 10.5 34.9876 10.5C44.0873 10.5 52.0677 15.4583 56.3013 22.8472C56.5932 23.4306 57.1772 23.7708 57.8584 23.7708C58.8317 23.7708 59.6102 22.9931 59.6102 22.0208C59.6102 21.6806 59.5129 21.3403 59.3183 21.0972L58.7343 20.125C58.5397 19.8333 58.345 19.5417 58.1504 19.2014C53.0896 11.8125 44.6225 7 34.9876 7C19.5132 7 6.95859 19.5417 6.95859 35C6.95859 50.4583 19.5132 63 34.9876 63C45.8391 63 55.2307 56.8264 59.9022 47.8333C59.9995 47.6875 60.0482 47.5417 60.1455 47.3958C60.1455 47.3472 60.1942 47.3472 60.1942 47.2986C60.1455 47.4444 60.1942 47.2986 60.2428 47.1528C60.2428 47.1042 60.2915 47.0555 60.2915 47.0555C60.3402 46.9097 60.3888 46.8125 60.2915 47.0069C60.3402 46.8125 60.3888 46.618 60.3888 46.4236C60.4862 45.4028 59.7076 44.625 58.7343 44.625Z" fill="url(#paint2_linear_66_388)"/>
<path d="M68.0774 46.375C68.0774 45.4028 67.2988 44.625 66.3255 44.625C65.6443 44.625 65.0603 45.0139 64.7684 45.5486L64.7197 45.6458C60.3402 57.7986 48.7101 66.4514 35.0362 66.4514C17.6154 66.4514 3.50362 52.3542 3.50362 34.9514C3.50362 17.5486 17.6641 3.5 35.0362 3.5C48.0288 3.5 59.1723 11.3264 63.9898 22.5556C64.1844 23.2847 64.8657 23.8194 65.6443 23.8194C66.6175 23.8194 67.3961 23.0417 67.3961 22.0694C67.3961 21.875 67.3474 21.6806 67.2988 21.4861C66.9581 20.5625 67.1528 21.0486 66.7635 20.1736C66.6175 19.9306 66.5202 19.6389 66.3742 19.3958C60.6808 7.875 48.8074 0 35.0362 0C15.669 0 0 15.6528 0 35C0 54.3472 15.669 70 35.0362 70C49.4887 70 61.8974 61.25 67.2501 48.7569C67.6881 47.7361 67.6394 48.0278 67.98 46.9583C68.0287 46.7639 68.0774 46.5694 68.0774 46.375Z" fill="url(#paint3_linear_66_388)"/>
<path d="M45.82 31.22V38.78C45.82 39.7 46.2 40.16 46.96 40.16C47.72 40.16 48.1 39.7 48.1 38.78V31.22C48.1 30.3 47.72 29.84 46.96 29.84C46.2 29.84 45.82 30.3 45.82 31.22ZM43.62 38.64V31.36C43.62 30.24 43.9067 29.3733 44.48 28.76C45.0533 28.1467 45.88 27.84 46.96 27.84C48.04 27.84 48.8667 28.1467 49.44 28.76C50.0133 29.3733 50.3 30.24 50.3 31.36V38.64C50.3 39.76 50.0133 40.6267 49.44 41.24C48.8667 41.8533 48.04 42.16 46.96 42.16C45.88 42.16 45.0533 41.8533 44.48 41.24C43.9067 40.6267 43.62 39.76 43.62 38.64ZM54.1297 30V42H51.9297V28H58.8697V42H56.6297V30H54.1297ZM63.9048 28C66.0915 28 67.1848 29.1533 67.1848 31.46V33.28C67.1848 35.5867 66.0915 36.74 63.9048 36.74H62.8648V42H60.6648V28H63.9048ZM63.9048 30H62.8648V34.74H63.9048C64.2648 34.74 64.5315 34.64 64.7048 34.44C64.8915 34.24 64.9848 33.9 64.9848 33.42V31.32C64.9848 30.84 64.8915 30.5 64.7048 30.3C64.5315 30.1 64.2648 30 63.9048 30ZM70.6039 30V33.9H73.6239V35.9H70.6039V40H74.4039V42H68.4039V28H74.4039V30H70.6039ZM84.5072 43.88H82.3272V42H77.6272V43.88H75.4872V40.04H76.3472C76.6672 39.64 76.8472 39.0333 76.8872 38.22L77.3872 28H83.5472V40.04H84.5072V43.88ZM79.4472 30L79.0472 38.18C78.9939 39.0733 78.7872 39.6933 78.4272 40.04H81.3072V30H79.4472ZM88.1328 30V33.9H91.1528V35.9H88.1328V40H91.9328V42H85.9328V28H91.9328V30H88.1328ZM92.8761 42.02V40.02C93.4094 40.02 93.7628 39.94 93.9361 39.78C94.1228 39.6067 94.2228 39.2067 94.2361 38.58L94.5961 28H100.816V42H98.5761V30H96.6561L96.4161 38.46C96.3761 39.74 96.1094 40.6533 95.6161 41.2C95.1228 41.7467 94.3228 42.02 93.2161 42.02H92.8761ZM104.9 30V33.9H107.92V35.9H104.9V40H108.7V42H102.7V28H108.7V30H104.9ZM112.463 36V42H110.263V28H112.463V34H114.963V28H117.203V42H114.963V36H112.463ZM123.098 35.58L121.258 42H118.998V28H120.958V36.86L121.758 33.78L123.558 28H125.978V42H123.998V32.14L123.098 35.58ZM129.934 30V33.9H132.954V35.9H129.934V40H133.734V42H127.734V28H133.734V30H129.934ZM147.142 43.88H144.962V42H140.262V43.88H138.122V40.04H138.982C139.302 39.64 139.482 39.0333 139.522 38.22L140.022 28H146.182V40.04H147.142V43.88ZM142.082 30L141.682 38.18C141.629 39.0733 141.422 39.6933 141.062 40.04H143.942V30H142.082ZM153.448 28L155.688 42H153.468L153.088 39.46H150.388L150.008 42H147.988L150.228 28H153.448ZM151.728 30.48L150.668 37.56H152.788L151.728 30.48ZM156.273 30V28H163.073V30H160.773V42H158.573V30H156.273Z" fill="#212121"/>
<defs>
<linearGradient id="paint0_linear_66_388" x1="-0.269337" y1="49.1387" x2="42.7466" y2="-2.03096" gradientUnits="userSpaceOnUse">
<stop stop-color="#00C095"/>
<stop offset="1" stop-color="#00FEE4"/>
</linearGradient>
<linearGradient id="paint1_linear_66_388" x1="-0.118621" y1="49.595" x2="42.8974" y2="-1.57432" gradientUnits="userSpaceOnUse">
<stop stop-color="#00C095"/>
<stop offset="1" stop-color="#00FEE4"/>
</linearGradient>
<linearGradient id="paint2_linear_66_388" x1="13.2743" y1="60.8536" x2="56.2902" y2="9.6843" gradientUnits="userSpaceOnUse">
<stop stop-color="#00BF96"/>
<stop offset="1" stop-color="#00FEE4"/>
</linearGradient>
<linearGradient id="paint3_linear_66_388" x1="13.2752" y1="60.8544" x2="56.2912" y2="9.68507" gradientUnits="userSpaceOnUse">
<stop stop-color="#00BF96"/>
<stop offset="1" stop-color="#00FEE4"/>
</linearGradient>
</defs>
</svg>
