<svg width="109" height="16" viewBox="0 0 109 16" fill="none" xmlns="http://www.w3.org/2000/svg">
<path d="M0.52 9.98H2.6V11.78C2.6 12.6867 2.98 13.14 3.74 13.14C4.5 13.14 4.88 12.6867 4.88 11.78V8.76H2.86V6.76H4.88V4.22C4.88 3.3 4.5 2.84 3.74 2.84C2.98 2.84 2.6 3.3 2.6 4.22V5.54H0.56V4.36C0.56 3.22667 0.833333 2.36 1.38 1.76C1.92667 1.14667 2.73333 0.84 3.8 0.84C4.86667 0.84 5.68 1.14667 6.24 1.76C6.8 2.36 7.08 3.22667 7.08 4.36V11.64C7.08 12.7733 6.8 13.6467 6.24 14.26C5.68 14.86 4.86667 15.16 3.8 15.16C2.73333 15.16 1.92 14.86 1.36 14.26C0.8 13.6467 0.52 12.7733 0.52 11.64V9.98ZM13.7348 15L11.5948 9.42L10.9148 10.7V15H8.71484V0.999999H10.9148V7.1L13.7948 0.999999H15.9948L12.9348 7.24L15.9948 15H13.7348ZM19.2161 4.22V11.78C19.2161 12.7 19.5961 13.16 20.3561 13.16C21.1161 13.16 21.4961 12.7 21.4961 11.78V4.22C21.4961 3.3 21.1161 2.84 20.3561 2.84C19.5961 2.84 19.2161 3.3 19.2161 4.22ZM17.0161 11.64V4.36C17.0161 3.24 17.3028 2.37333 17.8761 1.76C18.4494 1.14667 19.2761 0.84 20.3561 0.84C21.4361 0.84 22.2628 1.14667 22.8361 1.76C23.4094 2.37333 23.6961 3.24 23.6961 4.36V11.64C23.6961 12.76 23.4094 13.6267 22.8361 14.24C22.2628 14.8533 21.4361 15.16 20.3561 15.16C19.2761 15.16 18.4494 14.8533 17.8761 14.24C17.3028 13.6267 17.0161 12.76 17.0161 11.64ZM28.3658 0.999999L29.9858 10.94L31.4858 0.999999H34.5458V15H32.4658V4.96L30.9458 15H28.8658L27.2258 5.1V15H25.3058V0.999999H28.3658ZM38.3661 4.22V11.78C38.3661 12.7 38.7461 13.16 39.5061 13.16C40.2661 13.16 40.6461 12.7 40.6461 11.78V4.22C40.6461 3.3 40.2661 2.84 39.5061 2.84C38.7461 2.84 38.3661 3.3 38.3661 4.22ZM36.1661 11.64V4.36C36.1661 3.24 36.4528 2.37333 37.0261 1.76C37.5994 1.14667 38.4261 0.84 39.5061 0.84C40.5861 0.84 41.4128 1.14667 41.9861 1.76C42.5594 2.37333 42.8461 3.24 42.8461 4.36V11.64C42.8461 12.76 42.5594 13.6267 41.9861 14.24C41.4128 14.8533 40.5861 15.16 39.5061 15.16C38.4261 15.16 37.5994 14.8533 37.0261 14.24C36.4528 13.6267 36.1661 12.76 36.1661 11.64ZM46.6758 9V15H44.4758V0.999999H46.6758V7H49.1758V0.999999H51.4158V15H49.1758V9H46.6758ZM57.3109 8.58L55.4709 15H53.2109V0.999999H55.1709V9.86L55.9709 6.78L57.7709 0.999999H60.1909V15H58.2109V5.14L57.3109 8.58ZM61.3061 3V0.999999H68.1061V3H65.8061V15H63.6061V3H61.3061ZM71.295 4.22V11.78C71.295 12.7 71.675 13.16 72.435 13.16C73.195 13.16 73.575 12.7 73.575 11.78V4.22C73.575 3.3 73.195 2.84 72.435 2.84C71.675 2.84 71.295 3.3 71.295 4.22ZM69.095 11.64V4.36C69.095 3.24 69.3817 2.37333 69.955 1.76C70.5283 1.14667 71.355 0.84 72.435 0.84C73.515 0.84 74.3417 1.14667 74.915 1.76C75.4883 2.37333 75.775 3.24 75.775 4.36V11.64C75.775 12.76 75.4883 13.6267 74.915 14.24C74.3417 14.8533 73.515 15.16 72.435 15.16C71.355 15.16 70.5283 14.8533 69.955 14.24C69.3817 13.6267 69.095 12.76 69.095 11.64ZM80.6447 0.999999C82.8314 0.999999 83.9247 2.15333 83.9247 4.46V6.28C83.9247 8.58667 82.8314 9.74 80.6447 9.74H79.6047V15H77.4047V0.999999H80.6447ZM80.6447 3H79.6047V7.74H80.6447C81.0047 7.74 81.2714 7.64 81.4447 7.44C81.6314 7.24 81.7247 6.9 81.7247 6.42V4.32C81.7247 3.84 81.6314 3.5 81.4447 3.3C81.2714 3.1 81.0047 3 80.6447 3ZM89.2438 8.58L87.4038 15H85.1438V0.999999H87.1038V9.86L87.9038 6.78L89.7038 0.999999H92.1238V15H90.1438V5.14L89.2438 8.58ZM96.0789 9V15H93.8789V0.999999H96.0789V7H98.5789V0.999999H100.819V15H98.5789V9H96.0789ZM104.834 15H102.634V0.999999H108.434V3H104.834V15Z" fill="#212121"/>
</svg>
