<svg width="229" height="70" viewBox="0 0 229 70" fill="none" xmlns="http://www.w3.org/2000/svg">
<path d="M25.9852 19.736C26.9527 19.736 27.7371 18.9525 27.7371 17.986C27.7371 17.0195 26.9527 16.236 25.9852 16.236C25.0177 16.236 24.2334 17.0195 24.2334 17.986C24.2334 18.9525 25.0177 19.736 25.9852 19.736Z" fill="url(#paint0_linear_66_412)"/>
<path d="M15.8636 35.1459C15.961 35.1459 16.1069 35.1459 16.2043 35.0973C16.2529 35.0973 16.3016 35.0487 16.3502 35.0487C16.3989 35.0487 16.4962 35 16.5449 35C16.5936 35 16.6422 34.9514 16.6909 34.9028C16.7395 34.9028 16.7882 34.8542 16.7882 34.8542C16.8369 34.8056 16.8855 34.757 16.9828 34.7084L17.0315 34.6598C17.0802 34.6112 17.1775 34.5139 17.2261 34.4653C17.2261 34.4653 17.2261 34.4653 17.2748 34.4167C17.3235 34.3195 17.3721 34.2709 17.4208 34.1737C17.5181 33.9792 17.5668 33.7848 17.6154 33.5903C17.9561 29.1181 19.9999 25.132 23.0655 22.2639C23.5035 21.9237 23.7954 21.3889 23.7954 20.8056C23.7954 19.8334 23.0169 19.0556 22.0436 19.0556C21.6057 19.0556 21.2164 19.2014 20.9244 19.4931C17.0802 22.9445 14.5498 27.8056 14.1118 33.2987C14.1118 33.3473 14.1118 33.3473 14.1118 33.3959C14.1118 34.3195 14.8904 35.1459 15.8636 35.1459Z" fill="url(#paint1_linear_66_412)"/>
<path d="M58.7344 44.6249C58.0531 44.6249 57.4692 45.0138 57.1772 45.5485H57.1285C53.187 53.8124 44.7685 59.4999 34.9876 59.4999C21.4597 59.4999 10.4622 48.5138 10.4622 34.9999C10.4622 21.486 21.4597 10.4999 34.9876 10.4999C44.0873 10.4999 52.0677 15.4583 56.3013 22.8472C56.5933 23.4305 57.1772 23.7708 57.8585 23.7708C58.8317 23.7708 59.6103 22.993 59.6103 22.0208C59.6103 21.6805 59.513 21.3402 59.3183 21.0972L58.7344 20.1249C58.5397 19.8333 58.3451 19.5416 58.1504 19.2013C53.0896 11.8124 44.6226 6.99994 34.9876 6.99994C19.5133 6.99994 6.95862 19.5416 6.95862 34.9999C6.95862 50.4583 19.5133 62.9999 34.9876 62.9999C45.8391 62.9999 55.2307 56.8263 59.9022 47.8333C59.9996 47.6874 60.0482 47.5416 60.1455 47.3958C60.1455 47.3472 60.1942 47.3471 60.1942 47.2985C60.1455 47.4444 60.1942 47.2985 60.2429 47.1527C60.2429 47.1041 60.2915 47.0555 60.2915 47.0555C60.3402 46.9096 60.3889 46.8124 60.2915 47.0069C60.3402 46.8124 60.3889 46.618 60.3889 46.4235C60.4862 45.4027 59.7076 44.6249 58.7344 44.6249Z" fill="url(#paint2_linear_66_412)"/>
<path d="M68.0774 46.375C68.0774 45.4028 67.2988 44.625 66.3255 44.625C65.6443 44.625 65.0603 45.0139 64.7684 45.5486L64.7197 45.6458C60.3402 57.7986 48.7101 66.4514 35.0362 66.4514C17.6154 66.4514 3.50362 52.3542 3.50362 34.9514C3.50362 17.5486 17.6641 3.5 35.0362 3.5C48.0288 3.5 59.1723 11.3264 63.9898 22.5556C64.1844 23.2847 64.8657 23.8194 65.6443 23.8194C66.6175 23.8194 67.3961 23.0417 67.3961 22.0694C67.3961 21.875 67.3474 21.6806 67.2988 21.4861C66.9581 20.5625 67.1528 21.0486 66.7635 20.1736C66.6175 19.9306 66.5202 19.6389 66.3742 19.3958C60.6808 7.875 48.8074 0 35.0362 0C15.669 0 0 15.6528 0 35C0 54.3472 15.669 70 35.0362 70C49.4887 70 61.8974 61.25 67.2501 48.7569C67.6881 47.7361 67.6394 48.0278 67.98 46.9583C68.0287 46.7639 68.0774 46.5694 68.0774 46.375Z" fill="url(#paint3_linear_66_412)"/>
<path d="M46 36V42H43.8V28H46V34H48.5V28H50.74V42H48.5V36H46ZM54.7352 30V33.9H57.7552V35.9H54.7352V40H58.5352V42H52.5352V28H58.5352V30H54.7352ZM64.3384 32.22V31.44C64.3384 30.84 64.2384 30.4267 64.0384 30.2C63.8518 29.96 63.5718 29.84 63.1984 29.84C62.4251 29.84 62.0384 30.3 62.0384 31.22V32.36H60.0184V31.32C60.0184 30.1867 60.2918 29.3267 60.8384 28.74C61.3851 28.14 62.1918 27.84 63.2584 27.84C64.3251 27.84 65.1384 28.1467 65.6984 28.76C66.2584 29.36 66.5384 30.2267 66.5384 31.36V31.72C66.5384 33.2133 66.0251 34.1733 64.9984 34.6C66.0251 35.0533 66.5384 36.0333 66.5384 37.54V38.64C66.5384 39.7733 66.2584 40.6467 65.6984 41.26C65.1384 41.86 64.3251 42.16 63.2584 42.16C62.1918 42.16 61.3784 41.86 60.8184 41.26C60.2584 40.6467 59.9784 39.7733 59.9784 38.64V37.1H62.0584V38.78C62.0584 39.7 62.4384 40.16 63.1984 40.16C63.5718 40.16 63.8518 40.0467 64.0384 39.82C64.2384 39.58 64.3384 39.1667 64.3384 38.58V37.48C64.3384 36.84 64.2251 36.3867 63.9984 36.12C63.7718 35.84 63.4051 35.7 62.8984 35.7H62.3584V33.7H63.0184C63.4584 33.7 63.7851 33.5867 63.9984 33.36C64.2251 33.1333 64.3384 32.7533 64.3384 32.22ZM73.1081 28L75.3481 42H73.1281L72.7481 39.46H70.0481L69.6681 42H67.6481L69.8881 28H73.1081ZM71.3881 30.48L70.3281 37.56H72.4481L71.3881 30.48ZM81.5927 42L79.4527 36.42L78.7727 37.7V42H76.5727V28H78.7727V34.1L81.6527 28H83.8527L80.7927 34.24L83.8527 42H81.5927ZM87.0739 31.22V38.78C87.0739 39.7 87.4539 40.16 88.2139 40.16C88.9739 40.16 89.3539 39.7 89.3539 38.78V31.22C89.3539 30.3 88.9739 29.84 88.2139 29.84C87.4539 29.84 87.0739 30.3 87.0739 31.22ZM84.8739 38.64V31.36C84.8739 30.24 85.1606 29.3733 85.7339 28.76C86.3072 28.1467 87.1339 27.84 88.2139 27.84C89.2939 27.84 90.1206 28.1467 90.6939 28.76C91.2672 29.3733 91.5539 30.24 91.5539 31.36V38.64C91.5539 39.76 91.2672 40.6267 90.6939 41.24C90.1206 41.8533 89.2939 42.16 88.2139 42.16C87.1339 42.16 86.3072 41.8533 85.7339 41.24C85.1606 40.6267 84.8739 39.76 84.8739 38.64ZM95.3836 36V42H93.1836V28H95.3836V34H97.8836V28H100.124V42H97.8836V36H95.3836ZM104.119 36V42H101.919V28H104.119V34H106.619V28H108.859V42H106.619V36H104.119ZM115.534 28L117.774 42H115.554L115.174 39.46H112.474L112.094 42H110.074L112.314 28H115.534ZM113.814 30.48L112.754 37.56H114.874L113.814 30.48ZM120.838 42H118.598C118.758 41.6267 118.838 41.06 118.838 40.3V38.14C118.838 36.5667 119.325 35.5733 120.298 35.16C119.338 34.7067 118.858 33.76 118.858 32.32V31.22C118.858 30.1267 119.118 29.32 119.638 28.8C120.158 28.2667 120.985 28 122.118 28H125.438V42H123.238V36.3H122.478C121.972 36.3 121.605 36.44 121.378 36.72C121.152 36.9867 121.038 37.44 121.038 38.08V40.28C121.038 41.0267 120.972 41.6 120.838 42ZM123.238 30H122.178C121.432 30 121.058 30.48 121.058 31.44V32.82C121.058 33.3533 121.165 33.7333 121.378 33.96C121.605 34.1867 121.938 34.3 122.378 34.3H123.238V30ZM139.091 43.88H136.911V42H132.211V43.88H130.071V40.04H130.931C131.251 39.64 131.431 39.0333 131.471 38.22L131.971 28H138.131V40.04H139.091V43.88ZM134.031 30L133.631 38.18C133.577 39.0733 133.371 39.6933 133.011 40.04H135.891V30H134.031ZM142.716 30V33.9H145.736V35.9H142.716V40H146.516V42H140.516V28H146.516V30H142.716ZM149.92 42H147.68C147.84 41.6267 147.92 41.06 147.92 40.3V38.14C147.92 36.5667 148.406 35.5733 149.38 35.16C148.42 34.7067 147.94 33.76 147.94 32.32V31.22C147.94 30.1267 148.2 29.32 148.72 28.8C149.24 28.2667 150.066 28 151.2 28H154.52V42H152.32V36.3H151.56C151.053 36.3 150.686 36.44 150.46 36.72C150.233 36.9867 150.12 37.44 150.12 38.08V40.28C150.12 41.0267 150.053 41.6 149.92 42ZM152.32 30H151.26C150.513 30 150.14 30.48 150.14 31.44V32.82C150.14 33.3533 150.246 33.7333 150.46 33.96C150.686 34.1867 151.02 34.3 151.46 34.3H152.32V30ZM155.687 30V28H162.487V30H160.187V42H157.987V30H155.687ZM165.855 30V33.9H168.875V35.9H165.855V40H169.655V42H163.655V28H169.655V30H165.855ZM170.599 42.02V40.02C171.132 40.02 171.485 39.94 171.659 39.78C171.845 39.6067 171.945 39.2067 171.959 38.58L172.319 28H178.539V42H176.299V30H174.379L174.139 38.46C174.099 39.74 173.832 40.6533 173.339 41.2C172.845 41.7467 172.045 42.02 170.939 42.02H170.599ZM183.663 42H180.423V28H182.623V33.26H183.663C185.849 33.26 186.943 34.4133 186.943 36.72V38.54C186.943 40.8467 185.849 42 183.663 42ZM182.623 40H183.663C184.023 40 184.289 39.9 184.463 39.7C184.649 39.5 184.743 39.16 184.743 38.68V36.58C184.743 36.1 184.649 35.76 184.463 35.56C184.289 35.36 184.023 35.26 183.663 35.26H182.623V40ZM190.655 36V42H188.455V28H190.655V34H193.155V28H195.395V42H193.155V36H190.655ZM199.21 31.22V38.78C199.21 39.7 199.59 40.16 200.35 40.16C201.11 40.16 201.49 39.7 201.49 38.78V31.22C201.49 30.3 201.11 29.84 200.35 29.84C199.59 29.84 199.21 30.3 199.21 31.22ZM197.01 38.64V31.36C197.01 30.24 197.297 29.3733 197.87 28.76C198.443 28.1467 199.27 27.84 200.35 27.84C201.43 27.84 202.257 28.1467 202.83 28.76C203.403 29.3733 203.69 30.24 203.69 31.36V38.64C203.69 39.76 203.403 40.6267 202.83 41.24C202.257 41.8533 201.43 42.16 200.35 42.16C199.27 42.16 198.443 41.8533 197.87 41.24C197.297 40.6267 197.01 39.76 197.01 38.64ZM209.62 36.78H211.7V38.64C211.7 39.7733 211.42 40.6467 210.86 41.26C210.3 41.86 209.486 42.16 208.42 42.16C207.353 42.16 206.54 41.86 205.98 41.26C205.42 40.6467 205.14 39.7733 205.14 38.64V31.36C205.14 30.2267 205.42 29.36 205.98 28.76C206.54 28.1467 207.353 27.84 208.42 27.84C209.486 27.84 210.3 28.1467 210.86 28.76C211.42 29.36 211.7 30.2267 211.7 31.36V32.72H209.62V31.22C209.62 30.3 209.24 29.84 208.48 29.84C207.72 29.84 207.34 30.3 207.34 31.22V38.78C207.34 39.6867 207.72 40.14 208.48 40.14C209.24 40.14 209.62 39.6867 209.62 38.78V36.78ZM212.594 30V28H219.394V30H217.094V42H214.894V30H212.594ZM223.803 42H220.563V28H222.763V33.26H223.803C225.99 33.26 227.083 34.4133 227.083 36.72V38.54C227.083 40.8467 225.99 42 223.803 42ZM222.763 40H223.803C224.163 40 224.43 39.9 224.603 39.7C224.79 39.5 224.883 39.16 224.883 38.68V36.58C224.883 36.1 224.79 35.76 224.603 35.56C224.43 35.36 224.163 35.26 223.803 35.26H222.763V40Z" fill="#212121"/>
<defs>
<linearGradient id="paint0_linear_66_412" x1="-0.269308" y1="49.1385" x2="42.7466" y2="-2.03115" gradientUnits="userSpaceOnUse">
<stop stop-color="#00C095"/>
<stop offset="1" stop-color="#00FEE4"/>
</linearGradient>
<linearGradient id="paint1_linear_66_412" x1="-0.118591" y1="49.5949" x2="42.8974" y2="-1.57444" gradientUnits="userSpaceOnUse">
<stop stop-color="#00C095"/>
<stop offset="1" stop-color="#00FEE4"/>
</linearGradient>
<linearGradient id="paint2_linear_66_412" x1="13.2743" y1="60.8536" x2="56.2903" y2="9.68424" gradientUnits="userSpaceOnUse">
<stop stop-color="#00BF96"/>
<stop offset="1" stop-color="#00FEE4"/>
</linearGradient>
<linearGradient id="paint3_linear_66_412" x1="13.2752" y1="60.8544" x2="56.2912" y2="9.68507" gradientUnits="userSpaceOnUse">
<stop stop-color="#00BF96"/>
<stop offset="1" stop-color="#00FEE4"/>
</linearGradient>
</defs>
</svg>
