<svg width="212" height="70" viewBox="0 0 212 70" fill="none" xmlns="http://www.w3.org/2000/svg">
<path d="M25.9852 19.736C26.9527 19.736 27.7371 18.9525 27.7371 17.986C27.7371 17.0195 26.9527 16.236 25.9852 16.236C25.0177 16.236 24.2334 17.0195 24.2334 17.986C24.2334 18.9525 25.0177 19.736 25.9852 19.736Z" fill="url(#paint0_linear_66_404)"/>
<path d="M15.8636 35.1459C15.961 35.1459 16.1069 35.1459 16.2043 35.0973C16.2529 35.0973 16.3016 35.0487 16.3502 35.0487C16.3989 35.0487 16.4962 35 16.5449 35C16.5936 35 16.6422 34.9514 16.6909 34.9028C16.7395 34.9028 16.7882 34.8542 16.7882 34.8542C16.8369 34.8056 16.8855 34.757 16.9828 34.7084L17.0315 34.6598C17.0802 34.6112 17.1775 34.5139 17.2261 34.4653C17.2261 34.4653 17.2261 34.4653 17.2748 34.4167C17.3235 34.3195 17.3721 34.2709 17.4208 34.1737C17.5181 33.9792 17.5668 33.7848 17.6154 33.5903C17.9561 29.1181 19.9999 25.132 23.0655 22.2639C23.5035 21.9237 23.7954 21.3889 23.7954 20.8056C23.7954 19.8334 23.0169 19.0556 22.0436 19.0556C21.6057 19.0556 21.2164 19.2014 20.9244 19.4931C17.0802 22.9445 14.5498 27.8056 14.1118 33.2987C14.1118 33.3473 14.1118 33.3473 14.1118 33.3959C14.1118 34.3195 14.8904 35.1459 15.8636 35.1459Z" fill="url(#paint1_linear_66_404)"/>
<path d="M58.7343 44.6249C58.053 44.6249 57.4691 45.0138 57.1771 45.5485H57.1285C53.1869 53.8124 44.7685 59.4999 34.9875 59.4999C21.4597 59.4999 10.4622 48.5138 10.4622 34.9999C10.4622 21.486 21.4597 10.4999 34.9875 10.4999C44.0872 10.4999 52.0677 15.4583 56.3012 22.8472C56.5932 23.4305 57.1771 23.7708 57.8584 23.7708C58.8316 23.7708 59.6102 22.993 59.6102 22.0208C59.6102 21.6805 59.5129 21.3402 59.3182 21.0972L58.7343 20.1249C58.5397 19.8333 58.345 19.5416 58.1504 19.2013C53.0896 11.8124 44.6225 6.99994 34.9875 6.99994C19.5132 6.99994 6.95856 19.5416 6.95856 34.9999C6.95856 50.4583 19.5132 62.9999 34.9875 62.9999C45.839 62.9999 55.2307 56.8263 59.9022 47.8333C59.9995 47.6874 60.0482 47.5416 60.1455 47.3958C60.1455 47.3472 60.1942 47.3471 60.1942 47.2985C60.1455 47.4444 60.1941 47.2985 60.2428 47.1527C60.2428 47.1041 60.2915 47.0555 60.2915 47.0555C60.3401 46.9096 60.3888 46.8124 60.2915 47.0069C60.3401 46.8124 60.3888 46.618 60.3888 46.4235C60.4861 45.4027 59.7075 44.6249 58.7343 44.6249Z" fill="url(#paint2_linear_66_404)"/>
<path d="M68.0774 46.375C68.0774 45.4028 67.2988 44.625 66.3255 44.625C65.6443 44.625 65.0603 45.0139 64.7684 45.5486L64.7197 45.6458C60.3402 57.7986 48.7101 66.4514 35.0362 66.4514C17.6154 66.4514 3.50362 52.3542 3.50362 34.9514C3.50362 17.5486 17.6641 3.5 35.0362 3.5C48.0288 3.5 59.1723 11.3264 63.9898 22.5556C64.1844 23.2847 64.8657 23.8194 65.6443 23.8194C66.6175 23.8194 67.3961 23.0417 67.3961 22.0694C67.3961 21.875 67.3474 21.6806 67.2988 21.4861C66.9581 20.5625 67.1528 21.0486 66.7635 20.1736C66.6175 19.9306 66.5202 19.6389 66.3742 19.3958C60.6808 7.875 48.8074 0 35.0362 0C15.669 0 0 15.6528 0 35C0 54.3472 15.669 70 35.0362 70C49.4887 70 61.8974 61.25 67.2501 48.7569C67.6881 47.7361 67.6394 48.0278 67.98 46.9583C68.0287 46.7639 68.0774 46.5694 68.0774 46.375Z" fill="url(#paint3_linear_66_404)"/>
<path d="M45 36V42H42.8V28H45V34H47.5V28H49.74V42H47.5V36H45ZM56.4152 28L58.6552 42H56.4352L56.0552 39.46H53.3552L52.9752 42H50.9552L53.1952 28H56.4152ZM54.6952 30.48L53.6352 37.56H55.7552L54.6952 30.48ZM63.1197 28C65.3064 28 66.3997 29.1533 66.3997 31.46V33.28C66.3997 35.5867 65.3064 36.74 63.1197 36.74H62.0797V42H59.8797V28H63.1197ZM63.1197 30H62.0797V34.74H63.1197C63.4797 34.74 63.7464 34.64 63.9197 34.44C64.1064 34.24 64.1997 33.9 64.1997 33.42V31.32C64.1997 30.84 64.1064 30.5 63.9197 30.3C63.7464 30.1 63.4797 30 63.1197 30ZM74.8588 28L72.4988 38.44C72.2188 39.8 71.7721 40.76 71.1588 41.32C70.5454 41.88 69.5121 42.1133 68.0588 42.02V40.06C68.6588 40.1 69.1121 40.04 69.4188 39.88C69.7254 39.72 69.9188 39.4 69.9988 38.92L70.0188 38.8L66.9788 28H69.1588L70.3588 32.78L71.0388 36.06L71.5588 32.8L72.5588 28H74.8588ZM86.3828 42H75.9828V28H78.1828V40H80.0828V28H82.2828V40H84.1828V28H86.3828V42ZM90.375 30V33.9H93.395V35.9H90.375V40H94.175V42H88.175V28H94.175V30H90.375ZM97.9383 36V42H95.7383V28H97.9383V34H100.438V28H102.678V42H100.438V36H97.9383ZM108.573 35.58L106.733 42H104.473V28H106.433V36.86L107.233 33.78L109.033 28H111.453V42H109.473V32.14L108.573 35.58ZM115.409 30V33.9H118.429V35.9H115.409V40H119.209V42H113.209V28H119.209V30H115.409ZM126.297 42H124.097V28H129.897V30H126.297V42ZM134.822 28C137.009 28 138.102 29.1533 138.102 31.46V33.28C138.102 35.5867 137.009 36.74 134.822 36.74H133.782V42H131.582V28H134.822ZM134.822 30H133.782V34.74H134.822C135.182 34.74 135.449 34.64 135.622 34.44C135.809 34.24 135.902 33.9 135.902 33.42V31.32C135.902 30.84 135.809 30.5 135.622 30.3C135.449 30.1 135.182 30 134.822 30ZM144.201 28L146.441 42H144.221L143.841 39.46H141.141L140.761 42H138.741L140.981 28H144.201ZM142.481 30.48L141.421 37.56H143.541L142.481 30.48ZM149.866 36V42H147.666V28H149.866V34H152.366V28H154.606V42H152.366V36H149.866ZM160.501 35.58L158.661 42H156.401V28H158.361V36.86L159.161 33.78L160.961 28H163.381V42H161.401V32.14L160.501 35.58ZM165.136 42V28H167.336V40H169.836V28H172.076V40.04H173.036V43.88H170.896V42H165.136Z" fill="#212121"/>
<defs>
<linearGradient id="paint0_linear_66_404" x1="-0.269308" y1="49.1385" x2="42.7466" y2="-2.03115" gradientUnits="userSpaceOnUse">
<stop stop-color="#00C095"/>
<stop offset="1" stop-color="#00FEE4"/>
</linearGradient>
<linearGradient id="paint1_linear_66_404" x1="-0.118591" y1="49.5949" x2="42.8974" y2="-1.57444" gradientUnits="userSpaceOnUse">
<stop stop-color="#00C095"/>
<stop offset="1" stop-color="#00FEE4"/>
</linearGradient>
<linearGradient id="paint2_linear_66_404" x1="13.2742" y1="60.8536" x2="56.2902" y2="9.68424" gradientUnits="userSpaceOnUse">
<stop stop-color="#00BF96"/>
<stop offset="1" stop-color="#00FEE4"/>
</linearGradient>
<linearGradient id="paint3_linear_66_404" x1="13.2752" y1="60.8544" x2="56.2912" y2="9.68507" gradientUnits="userSpaceOnUse">
<stop stop-color="#00BF96"/>
<stop offset="1" stop-color="#00FEE4"/>
</linearGradient>
</defs>
</svg>
