<svg width="213" height="70" viewBox="0 0 213 70" fill="none" xmlns="http://www.w3.org/2000/svg">
<path d="M25.9852 19.7361C26.9527 19.7361 27.7371 18.9526 27.7371 17.9861C27.7371 17.0196 26.9527 16.2361 25.9852 16.2361C25.0177 16.2361 24.2334 17.0196 24.2334 17.9861C24.2334 18.9526 25.0177 19.7361 25.9852 19.7361Z" fill="url(#paint0_linear_66_428)"/>
<path d="M15.8636 35.1458C15.961 35.1458 16.1069 35.1458 16.2043 35.0972C16.2529 35.0972 16.3016 35.0486 16.3502 35.0486C16.3989 35.0486 16.4962 35 16.5449 35C16.5936 35 16.6422 34.9514 16.6909 34.9028C16.7395 34.9028 16.7882 34.8542 16.7882 34.8542C16.8369 34.8055 16.8855 34.7569 16.9828 34.7083L17.0315 34.6597C17.0802 34.6111 17.1775 34.5139 17.2261 34.4653C17.2261 34.4653 17.2261 34.4653 17.2748 34.4166C17.3235 34.3194 17.3721 34.2708 17.4208 34.1736C17.5181 33.9792 17.5668 33.7847 17.6154 33.5903C17.9561 29.118 19.9999 25.1319 23.0655 22.2639C23.5035 21.9236 23.7954 21.3889 23.7954 20.8055C23.7954 19.8333 23.0169 19.0555 22.0436 19.0555C21.6057 19.0555 21.2164 19.2014 20.9244 19.493C17.0802 22.9444 14.5498 27.8055 14.1118 33.2986C14.1118 33.3472 14.1118 33.3472 14.1118 33.3958C14.1118 34.3194 14.8904 35.1458 15.8636 35.1458Z" fill="url(#paint1_linear_66_428)"/>
<path d="M58.7343 44.6249C58.053 44.6249 57.4691 45.0138 57.1771 45.5485H57.1285C53.1869 53.8124 44.7685 59.4999 34.9875 59.4999C21.4597 59.4999 10.4622 48.5138 10.4622 34.9999C10.4622 21.486 21.4597 10.4999 34.9875 10.4999C44.0872 10.4999 52.0677 15.4582 56.3012 22.8471C56.5932 23.4304 57.1771 23.7707 57.8584 23.7707C58.8316 23.7707 59.6102 22.9929 59.6102 22.0207C59.6102 21.6804 59.5129 21.3402 59.3182 21.0971L58.7343 20.1249C58.5397 19.8332 58.345 19.5415 58.1504 19.2013C53.0896 11.8124 44.6225 6.99988 34.9875 6.99988C19.5132 6.99988 6.95856 19.5415 6.95856 34.9999C6.95856 50.4582 19.5132 62.9999 34.9875 62.9999C45.839 62.9999 55.2307 56.8263 59.9022 47.8332C59.9995 47.6874 60.0482 47.5415 60.1455 47.3957C60.1455 47.3471 60.1942 47.3471 60.1942 47.2985C60.1455 47.4443 60.1941 47.2985 60.2428 47.1526C60.2428 47.104 60.2915 47.0554 60.2915 47.0554C60.3401 46.9096 60.3888 46.8124 60.2915 47.0068C60.3401 46.8124 60.3888 46.6179 60.3888 46.4235C60.4861 45.4027 59.7075 44.6249 58.7343 44.6249Z" fill="url(#paint2_linear_66_428)"/>
<path d="M68.0774 46.375C68.0774 45.4028 67.2988 44.625 66.3255 44.625C65.6443 44.625 65.0603 45.0139 64.7684 45.5486L64.7197 45.6458C60.3402 57.7986 48.7101 66.4514 35.0362 66.4514C17.6154 66.4514 3.50362 52.3542 3.50362 34.9514C3.50362 17.5486 17.6641 3.5 35.0362 3.5C48.0288 3.5 59.1723 11.3264 63.9898 22.5556C64.1844 23.2847 64.8657 23.8194 65.6443 23.8194C66.6175 23.8194 67.3961 23.0417 67.3961 22.0694C67.3961 21.875 67.3474 21.6806 67.2988 21.4861C66.9581 20.5625 67.1528 21.0486 66.7635 20.1736C66.6175 19.9306 66.5202 19.6389 66.3742 19.3958C60.6808 7.875 48.8074 0 35.0362 0C15.669 0 0 15.6528 0 35C0 54.3472 15.669 70 35.0362 70C49.4887 70 61.8974 61.25 67.2501 48.7569C67.6881 47.7361 67.6394 48.0278 67.98 46.9583C68.0287 46.7639 68.0774 46.5694 68.0774 46.375Z" fill="url(#paint3_linear_66_428)"/>
<path d="M48.1 36.78H50.18V38.64C50.18 39.7733 49.9 40.6467 49.34 41.26C48.78 41.86 47.9667 42.16 46.9 42.16C45.8333 42.16 45.02 41.86 44.46 41.26C43.9 40.6467 43.62 39.7733 43.62 38.64V31.36C43.62 30.2267 43.9 29.36 44.46 28.76C45.02 28.1467 45.8333 27.84 46.9 27.84C47.9667 27.84 48.78 28.1467 49.34 28.76C49.9 29.36 50.18 30.2267 50.18 31.36V32.72H48.1V31.22C48.1 30.3 47.72 29.84 46.96 29.84C46.2 29.84 45.82 30.3 45.82 31.22V38.78C45.82 39.6867 46.2 40.14 46.96 40.14C47.72 40.14 48.1 39.6867 48.1 38.78V36.78ZM53.7348 31.22V38.78C53.7348 39.7 54.1148 40.16 54.8748 40.16C55.6348 40.16 56.0148 39.7 56.0148 38.78V31.22C56.0148 30.3 55.6348 29.84 54.8748 29.84C54.1148 29.84 53.7348 30.3 53.7348 31.22ZM51.5348 38.64V31.36C51.5348 30.24 51.8215 29.3733 52.3948 28.76C52.9682 28.1467 53.7948 27.84 54.8748 27.84C55.9548 27.84 56.7815 28.1467 57.3548 28.76C57.9282 29.3733 58.2148 30.24 58.2148 31.36V38.64C58.2148 39.76 57.9282 40.6267 57.3548 41.24C56.7815 41.8533 55.9548 42.16 54.8748 42.16C53.7948 42.16 52.9682 41.8533 52.3948 41.24C51.8215 40.6267 51.5348 39.76 51.5348 38.64ZM63.3445 42H59.8645V28H66.0245V30H62.0645V33.58H63.3445C64.4379 33.58 65.2645 33.88 65.8245 34.48C66.3845 35.0667 66.6645 35.92 66.6645 37.04V38.54C66.6645 39.66 66.3845 40.52 65.8245 41.12C65.2645 41.7067 64.4379 42 63.3445 42ZM62.0645 40H63.3445C64.0912 40 64.4645 39.56 64.4645 38.68V36.9C64.4645 36.02 64.0912 35.58 63.3445 35.58H62.0645V40ZM67.7253 42.02V40.02C68.2586 40.02 68.612 39.94 68.7853 39.78C68.972 39.6067 69.072 39.2067 69.0853 38.58L69.4453 28H75.6653V42H73.4253V30H71.5053L71.2653 38.46C71.2253 39.74 70.9586 40.6533 70.4653 41.2C69.972 41.7467 69.172 42.02 68.0653 42.02H67.7253ZM81.3892 38.64V36H79.7492V42H77.5492V28H79.7492V34H81.3892V31.36C81.3892 30.24 81.6759 29.3733 82.2492 28.76C82.8226 28.1467 83.6492 27.84 84.7292 27.84C85.8092 27.84 86.6359 28.1467 87.2092 28.76C87.7826 29.3733 88.0692 30.24 88.0692 31.36V38.64C88.0692 39.76 87.7826 40.6267 87.2092 41.24C86.6359 41.8533 85.8092 42.16 84.7292 42.16C83.6492 42.16 82.8226 41.8533 82.2492 41.24C81.6759 40.6267 81.3892 39.76 81.3892 38.64ZM83.5892 31.22V38.78C83.5892 39.7 83.9692 40.16 84.7292 40.16C85.4892 40.16 85.8692 39.7 85.8692 38.78V31.22C85.8692 30.3 85.4892 29.84 84.7292 29.84C83.9692 29.84 83.5892 30.3 83.5892 31.22ZM98.2619 43.88H96.0819V42H91.3819V43.88H89.2419V40.04H90.1019C90.4219 39.64 90.6019 39.0333 90.6419 38.22L91.1419 28H97.3019V40.04H98.2619V43.88ZM93.2019 30L92.8019 38.18C92.7485 39.0733 92.5419 39.6933 92.1819 40.04H95.0619V30H93.2019ZM101.888 30V33.9H104.908V35.9H101.888V40H105.688V42H99.6875V28H105.688V30H101.888ZM109.451 36V42H107.251V28H109.451V34H111.951V28H114.191V42H111.951V36H109.451ZM120.086 35.58L118.246 42H115.986V28H117.946V36.86L118.746 33.78L120.546 28H122.966V42H120.986V32.14L120.086 35.58ZM126.921 30V33.9H129.941V35.9H126.921V40H130.721V42H124.721V28H130.721V30H126.921ZM139.89 36.78H141.97V38.64C141.97 39.7733 141.69 40.6467 141.13 41.26C140.57 41.86 139.757 42.16 138.69 42.16C137.623 42.16 136.81 41.86 136.25 41.26C135.69 40.6467 135.41 39.7733 135.41 38.64V31.36C135.41 30.2267 135.69 29.36 136.25 28.76C136.81 28.1467 137.623 27.84 138.69 27.84C139.757 27.84 140.57 28.1467 141.13 28.76C141.69 29.36 141.97 30.2267 141.97 31.36V32.72H139.89V31.22C139.89 30.3 139.51 29.84 138.75 29.84C137.99 29.84 137.61 30.3 137.61 31.22V38.78C137.61 39.6867 137.99 40.14 138.75 40.14C139.51 40.14 139.89 39.6867 139.89 38.78V36.78ZM146.745 28C148.931 28 150.025 29.1533 150.025 31.46V33.28C150.025 35.5867 148.931 36.74 146.745 36.74H145.705V42H143.505V28H146.745ZM146.745 30H145.705V34.74H146.745C147.105 34.74 147.371 34.64 147.545 34.44C147.731 34.24 147.825 33.9 147.825 33.42V31.32C147.825 30.84 147.731 30.5 147.545 30.3C147.371 30.1 147.105 30 146.745 30ZM153.264 31.22V38.78C153.264 39.7 153.644 40.16 154.404 40.16C155.164 40.16 155.544 39.7 155.544 38.78V31.22C155.544 30.3 155.164 29.84 154.404 29.84C153.644 29.84 153.264 30.3 153.264 31.22ZM151.064 38.64V31.36C151.064 30.24 151.35 29.3733 151.924 28.76C152.497 28.1467 153.324 27.84 154.404 27.84C155.484 27.84 156.31 28.1467 156.884 28.76C157.457 29.3733 157.744 30.24 157.744 31.36V38.64C157.744 39.76 157.457 40.6267 156.884 41.24C156.31 41.8533 155.484 42.16 154.404 42.16C153.324 42.16 152.497 41.8533 151.924 41.24C151.35 40.6267 151.064 39.76 151.064 38.64ZM164.393 42L162.253 36.42L161.573 37.7V42H159.373V28H161.573V34.1L164.453 28H166.653L163.593 34.24L166.653 42H164.393ZM169.875 31.22V38.78C169.875 39.7 170.255 40.16 171.015 40.16C171.775 40.16 172.155 39.7 172.155 38.78V31.22C172.155 30.3 171.775 29.84 171.015 29.84C170.255 29.84 169.875 30.3 169.875 31.22ZM167.675 38.64V31.36C167.675 30.24 167.961 29.3733 168.535 28.76C169.108 28.1467 169.935 27.84 171.015 27.84C172.095 27.84 172.921 28.1467 173.495 28.76C174.068 29.3733 174.355 30.24 174.355 31.36V38.64C174.355 39.76 174.068 40.6267 173.495 41.24C172.921 41.8533 172.095 42.16 171.015 42.16C169.935 42.16 169.108 41.8533 168.535 41.24C167.961 40.6267 167.675 39.76 167.675 38.64ZM179.304 28C180.438 28 181.264 28.2667 181.784 28.8C182.304 29.32 182.564 30.1267 182.564 31.22V31.72C182.564 33.16 182.091 34.1 181.144 34.54C182.238 34.9667 182.784 35.9667 182.784 37.54V38.68C182.784 39.76 182.498 40.5867 181.924 41.16C181.364 41.72 180.538 42 179.444 42H175.984V28H179.304ZM179.164 35.7H178.184V40H179.444C179.831 40 180.118 39.9 180.304 39.7C180.491 39.4867 180.584 39.1267 180.584 38.62V37.4C180.584 36.76 180.471 36.32 180.244 36.08C180.031 35.8267 179.671 35.7 179.164 35.7ZM179.244 30H178.184V33.7H179.044C179.484 33.7 179.811 33.5867 180.024 33.36C180.251 33.1333 180.364 32.7533 180.364 32.22V31.44C180.364 30.48 179.991 30 179.244 30Z" fill="#212121"/>
<defs>
<linearGradient id="paint0_linear_66_428" x1="-0.269308" y1="49.1386" x2="42.7466" y2="-2.03109" gradientUnits="userSpaceOnUse">
<stop stop-color="#00C095"/>
<stop offset="1" stop-color="#00FEE4"/>
</linearGradient>
<linearGradient id="paint1_linear_66_428" x1="-0.118591" y1="49.5948" x2="42.8974" y2="-1.5745" gradientUnits="userSpaceOnUse">
<stop stop-color="#00C095"/>
<stop offset="1" stop-color="#00FEE4"/>
</linearGradient>
<linearGradient id="paint2_linear_66_428" x1="13.2742" y1="60.8535" x2="56.2902" y2="9.68418" gradientUnits="userSpaceOnUse">
<stop stop-color="#00BF96"/>
<stop offset="1" stop-color="#00FEE4"/>
</linearGradient>
<linearGradient id="paint3_linear_66_428" x1="13.2752" y1="60.8544" x2="56.2912" y2="9.68507" gradientUnits="userSpaceOnUse">
<stop stop-color="#00BF96"/>
<stop offset="1" stop-color="#00FEE4"/>
</linearGradient>
</defs>
</svg>
